<svg viewBox="0 0 512 512" xmlns="http://www.w3.org/2000/svg" fill-rule="evenodd" clip-rule="evenodd" stroke-linejoin="round" stroke-miterlimit="2"><path d="M490.407 222.232l-59.216 33.791 59.216 33.699a30.596 30.596 0 0115.587 26.648c0 5.423-1.441 10.768-4.184 15.447-8.707 14.61-27.78 19.646-42.576 11.233l-106.053-60.424a30.456 30.456 0 01-14.16-17.585 29.652 29.652 0 01-1.41-10.01c.077-2.432.433-4.849 1.084-7.281 2.122-7.515 7.08-14.254 14.44-18.5l106.022-60.347c14.811-8.444 33.93-3.377 42.591 11.31 8.692 14.72 3.61 33.498-11.341 42.019zm-56.07 163.75L328.36 325.668a31.055 31.055 0 00-18.066-4.029c-16.082 1.07-28.771 14.549-28.849 30.677v120.788c0 17.043 13.898 30.8 31.173 30.8 17.26 0 31.204-13.788 31.204-30.8V405.55l59.34 33.791c14.78 8.49 33.93 3.455 42.592-11.232 8.599-14.72 3.532-33.621-11.419-42.143v.016zM312.03 267.846l-44.063 43.413a8.774 8.774 0 01-5.531 2.324h-12.937a9.029 9.029 0 01-5.516-2.324l-44.064-43.413a8.727 8.727 0 01-2.277-5.423v-12.798a8.893 8.893 0 012.277-5.484l44.033-43.428a8.977 8.977 0 015.516-2.278h12.968a8.843 8.843 0 015.53 2.278l44.064 43.428a8.893 8.893 0 012.278 5.484v12.798c0 1.704-1.007 4.183-2.278 5.423zm-35.216-12.054a9.053 9.053 0 00-2.34-5.485l-12.751-12.55a9.056 9.056 0 00-5.531-2.277h-.511a8.93 8.93 0 00-5.485 2.277l-12.751 12.55a8.878 8.878 0 00-2.231 5.485v.496c0 1.75.976 4.183 2.23 5.422l12.752 12.581c1.27 1.24 3.718 2.293 5.485 2.293h.51a9.165 9.165 0 005.532-2.293l12.751-12.58a8.847 8.847 0 002.34-5.423v-.496zM77.614 125.94l106.006 60.394a31.372 31.372 0 0018.097 4.028c16.097-1.1 28.771-14.595 28.864-30.724V38.866c0-16.98-13.975-30.77-31.173-30.77-17.26 0-31.204 13.79-31.204 30.77v67.583L108.818 72.58c-14.797-8.46-33.916-3.408-42.592 11.264a30.65 30.65 0 00-4.199 15.463c0 11.03 5.98 21.241 15.587 26.648v-.015zm232.681 64.422a31.169 31.169 0 0018.066-4.028l105.975-60.379a30.664 30.664 0 0015.587-26.68c0-5.422-1.441-10.752-4.168-15.431-8.692-14.657-27.796-19.708-42.592-11.264l-59.34 33.869V38.866c0-16.98-13.944-30.77-31.204-30.77-17.275 0-31.173 13.79-31.173 30.77v120.757c-.046 16.221 12.674 29.546 28.85 30.723v.016zm-108.578 131.26a31.035 31.035 0 00-18.097 4.03L77.614 385.966a30.714 30.714 0 00-15.587 26.711c0 5.423 1.441 10.753 4.168 15.432 8.707 14.641 27.81 19.676 42.592 11.217l59.386-33.791v67.551c0 17.043 13.944 30.801 31.204 30.801 17.198 0 31.173-13.789 31.173-30.8V352.314c-.046-16.128-12.736-29.623-28.818-30.692h-.015zm-28.74-56.581a30.436 30.436 0 001.394-10.01 30.78 30.78 0 00-15.649-25.78L52.81 168.919c-14.952-8.49-34.024-3.455-42.592 11.31-8.66 14.719-3.533 33.497 11.419 42.018l59.2 33.792-59.231 33.698c-9.622 5.407-15.602 15.618-15.602 26.649 0 5.438 1.44 10.768 4.183 15.447 8.707 14.641 27.795 19.677 42.592 11.233l105.944-60.425c7.19-4.028 12.023-10.412 14.254-17.585v-.015z" fill="#249edc"/></svg>