<svg viewBox="0 0 512 512" xmlns="http://www.w3.org/2000/svg" fill-rule="evenodd" clip-rule="evenodd" stroke-linejoin="round" stroke-miterlimit="2"><path d="M299.052 61.73c-20.8-24.9-38.714-50.186-42.373-55.438a.92.92 0 00-1.347 0c-3.66 5.252-21.573 30.538-42.373 55.438-178.54 229.718 28.118 384.746 28.118 384.746l1.733 1.167c1.545 23.925 5.397 58.357 5.397 58.357h15.408s3.852-34.238 5.392-58.357l1.733-1.36c.193.193 206.853-154.835 28.312-384.553zm-43.14 381.441s-9.25-7.978-11.75-12.059v-.39l11.17-250.146c0-.777 1.154-.777 1.154 0l11.17 250.146v.39c-2.5 4.081-11.745 12.06-11.745 12.06z" fill="#00684a" fill-rule="nonzero"/></svg>