<svg xmlns="http://www.w3.org/2000/svg" shape-rendering="geometricPrecision" text-rendering="geometricPrecision" image-rendering="optimizeQuality" fill-rule="evenodd" clip-rule="evenodd" viewBox="0 0 1000 597.02"><g fill-rule="nonzero"><path fill="gray" d="M94.1 0h811.8c25.89 0 49.42 10.58 66.47 27.63C989.41 44.68 1000 68.21 1000 94.1v408.82c0 25.89-10.59 49.42-27.64 66.47-17.04 17.04-40.57 27.63-66.46 27.63H94.1c-25.89 0-49.42-10.58-66.47-27.63C10.59 552.34 0 528.81 0 502.92V94.1c0-25.89 10.58-49.42 27.63-66.47C44.68 10.58 68.21 0 94.1 0zm811.8 32.43H94.1c-16.94 0-32.36 6.95-43.54 18.13S32.43 77.16 32.43 94.1v408.82c0 16.94 6.95 32.35 18.13 43.54 11.19 11.18 26.6 18.13 43.54 18.13h811.8c16.93 0 32.35-6.95 43.53-18.13 11.19-11.19 18.14-26.6 18.14-43.54V94.1c0-16.94-6.95-32.35-18.13-43.54-11.19-11.18-26.6-18.13-43.54-18.13z"/><path fill="#001C64" d="M624.1 285.97c-7.23 41.2-40.84 72.34-84.95 72.34h-28c-5.71 0-11.46 5.29-12.37 11.13l-12.26 77.84c-.71 4.43-2.79 5.9-7.28 5.9H434.2c-4.55 0-5.63-1.52-4.95-6.02l5.17-53.82-54.06-2.79c-4.55 0-6.19-2.48-5.55-7.02l36.89-233.89c.71-4.43 3.47-6.33 7.94-6.33h93.55c45.04 0 73.52 30.31 77.01 69.62 26.79 18.1 39.32 42.18 33.9 73.04z"/><path fill="#0070E0" d="M448.13 306.19l-13.7 87.16-8.67 54.68c-.05.36-.08.74-.08 1.12 0 4.08 3.3 7.4 7.39 7.42l47.56.01a9.142 9.142 0 009.01-7.71l12.52-79.44c.7-4.43 4.51-7.69 9-7.7l27.99.01c44.09-.06 81.57-32.21 88.33-75.76 4.85-30.94-10.72-59.1-37.36-73.02a70.51 70.51 0 01-.86 9.83c-6.79 43.53-44.27 75.67-88.32 75.72h-43.82c-4.48 0-8.29 3.26-8.99 7.68z"/><path fill="#003087" d="M434.42 393.35h-55.39c-4.09-.02-7.39-3.35-7.39-7.44 0-.38.03-.75.08-1.12l37.32-236.65c.7-4.43 4.52-7.7 9-7.7h95.1c45.04 0 77.78 32.77 77.01 72.47a83.299 83.299 0 00-38.1-9.24h-79.97c-4.49 0-8.31 3.26-9.01 7.69l-14.94 94.83-13.7 87.16h-.01z"/></g></svg>