<svg viewBox="0 0 512 512" xmlns="http://www.w3.org/2000/svg" fill-rule="evenodd" clip-rule="evenodd" stroke-linejoin="round" stroke-miterlimit="2"><path d="M506 116v280c0 60.71-49.29 110-110 110H116C55.29 506 6 456.71 6 396V116C6 55.289 55.29 6 116 6h280c60.71 0 110 49.289 110 110z" fill="#635bff"/><path d="M237.458 204.11c0-10.998 9.198-15.228 24.435-15.228 21.848 0 49.446 6.486 71.293 18.048v-66.272c-23.86-9.307-47.433-12.973-71.293-12.973-58.358 0-97.167 29.893-97.167 79.81 0 77.834 109.24 65.426 109.24 98.985 0 12.973-11.499 17.202-27.597 17.202-23.86 0-54.334-9.587-78.48-22.56v67.119c26.734 11.28 53.757 16.074 78.48 16.074 59.796 0 100.905-29.047 100.905-79.526-.288-84.04-109.816-69.093-109.816-100.679z" fill="#fff"/></svg>