<?xml version="1.0" encoding="UTF-8"?>
<svg id="Layer_1" xmlns="http://www.w3.org/2000/svg" version="1.1" viewBox="0 0 1080 1080">
  <!-- Generator: Adobe Illustrator 29.8.2, SVG Export Plug-In . SVG Version: 2.1.1 Build 3)  -->
  <defs>
    <style>
      .st0 {
        fill: #20427f;
      }
    </style>
  </defs>
  <path class="st0" d="M916.5,332.6c-76.51,56.19-237.56,109.17-254.26,213.63-14.62,91.46-3.15,162.2-46.36,252.65-105.83,221.53-465.15,216.14-564.17-14C-3.01,657.69-2.75,410.19,66.46,288.21c114.49-201.8,453.78-201.33,545.96,18.71-44.05,29.43-83.34,71.2-105.73,119.8-7.86,5.35-25.43-62.45-30.18-72.17-55.83-114.25-217.6-120.32-276.35-4.63-58.15,114.51-65.92,465.19,109.81,481.25,86.48,7.9,146-24.88,175.66-107.18,45.79-127.1-3.95-241.52,112.24-352.88,23.77-22.78,317.96-215.69,338.02-215.69h130.12v797.34h-149.5V332.6Z"/>
</svg>