<?xml version="1.0" encoding="UTF-8"?>
<svg version="1.1" xmlns="http://www.w3.org/2000/svg" width="503" height="496">
<path d="M0 0 C2.44943127 2.2559642 4.84736631 4.56170993 7.24536133 6.87231445 C7.9027832 7.46657227 8.56020508 8.06083008 9.23754883 8.6730957 C16.73000111 15.63037282 22.43411014 24.88208998 27.17504883 33.87231445 C28.2348572 35.92586113 28.2348572 35.92586113 29.62817383 37.9699707 C37.73452042 52.51831736 40.97624284 69.45352741 42.24536133 85.87231445 C42.3355957 87.03633789 42.42583008 88.20036133 42.51879883 89.3996582 C43.2632386 111.64695451 36.78659682 133.45894933 26.32495117 152.86010742 C25.19908776 154.95856203 24.1046243 157.07129762 23.01489258 159.1887207 C18.45900692 167.99670077 13.56279803 176.49661174 8.24536133 184.87231445 C0.75722684 196.67591054 0.75722684 196.67591054 -6.13354492 208.83325195 C-11.49333114 218.88123672 -16.95844325 228.83686204 -23.18041992 238.38012695 C-25.34026075 241.79942832 -27.23730736 245.33960653 -29.15307617 248.8996582 C-31.0184729 252.36201651 -32.90143606 255.81255647 -34.81713867 259.24731445 C-35.44749023 260.38942383 -36.0778418 261.5315332 -36.72729492 262.70825195 C-38.82754092 265.98609253 -40.91627994 268.24547985 -43.75463867 270.87231445 C-44.9327567 269.29748321 -46.09676694 267.71209073 -47.25463867 266.12231445 C-48.22916992 264.79973633 -48.22916992 264.79973633 -49.22338867 263.45043945 C-50.75463867 260.87231445 -50.75463867 260.87231445 -50.75463867 256.87231445 C-51.41463867 256.87231445 -52.07463867 256.87231445 -52.75463867 256.87231445 C-56.75463867 249.87231445 -60.75463867 242.87231445 -64.75463867 235.87231445 C-65.08181885 235.30029297 -65.40899902 234.72827148 -65.74609375 234.13891602 C-67.45575405 231.14920881 -69.16128945 228.1572601 -70.86010742 225.16137695 C-71.55393158 223.93991697 -72.24793909 222.71856111 -72.94213867 221.49731445 C-73.44003906 220.61982544 -73.44003906 220.61982544 -73.94799805 219.72460938 C-75.79761676 216.48360665 -77.72337846 213.31467173 -79.75463867 210.18481445 C-81.75463867 206.87231445 -81.75463867 206.87231445 -81.75463867 203.87231445 C-82.41463867 203.87231445 -83.07463867 203.87231445 -83.75463867 203.87231445 C-84.46508608 202.69839921 -85.14690611 201.50714516 -85.81713867 200.30981445 C-86.19999023 199.64852539 -86.5828418 198.98723633 -86.97729492 198.3059082 C-88.31718285 194.1111837 -87.55570832 190.62701082 -85.74316406 186.65673828 C-84.46919211 184.2546997 -83.13066994 181.90480107 -81.75463867 179.55981445 C-81.29057617 178.74963867 -80.82651367 177.93946289 -80.34838867 177.10473633 C-79.49423675 175.61369497 -78.63538533 174.12532845 -77.77026367 172.640625 C-77.06079517 171.40536531 -76.39169629 170.14642969 -75.75463867 168.87231445 C-75.09463867 168.87231445 -74.43463867 168.87231445 -73.75463867 168.87231445 C-73.75463867 167.55231445 -73.75463867 166.23231445 -73.75463867 164.87231445 C-73.09463867 164.87231445 -72.43463867 164.87231445 -71.75463867 164.87231445 C-71.65119141 164.32808838 -71.54774414 163.7838623 -71.44116211 163.22314453 C-70.58770425 160.30068873 -69.25746998 157.91659673 -67.77026367 155.2590332 C-66.86147461 153.63384766 -66.86147461 153.63384766 -65.93432617 151.97583008 C-65.2975293 150.84854492 -64.66073242 149.72125977 -64.00463867 148.55981445 C-63.38331055 147.44413086 -62.76198242 146.32844727 -62.12182617 145.17895508 C-56.98682969 136.04104467 -56.98682969 136.04104467 -53.98510742 131.93481445 C-51.91070781 129.08660202 -50.34129686 126.35241277 -48.81713867 123.18481445 C-47.27865291 120.00845755 -45.73944015 116.84310874 -44.11010742 113.7121582 C-38.16406066 102.26854995 -36.37472996 93.45940837 -39.28588867 80.5090332 C-41.28220776 74.5794902 -44.952498 68.59013145 -49.44213867 64.2355957 C-50.75463867 62.87231445 -50.75463867 62.87231445 -50.75463867 60.87231445 C-51.34374023 60.59258789 -51.9328418 60.31286133 -52.53979492 60.0246582 C-54.58386722 58.9611638 -56.32224354 57.77164371 -58.19213867 56.43481445 C-68.43913627 50.09506943 -80.84391422 50.36724044 -92.50463867 50.49731445 C-93.25343292 50.5022995 -94.00222717 50.50728455 -94.77371216 50.51242065 C-119.16374408 50.69416149 -119.16374408 50.69416149 -139.80151367 62.75512695 C-148.46996467 71.90515856 -151.52395783 82.50053658 -151.75463867 94.87231445 C-151.2696877 98.09195136 -150.57206738 101.0297426 -149.57885742 104.1262207 C-148.75463867 106.87231445 -148.75463867 106.87231445 -147.75463867 113.87231445 C-174.48463867 113.87231445 -201.21463867 113.87231445 -228.75463867 113.87231445 C-236.61628654 90.28737085 -229.37868316 60.40840463 -218.75463867 38.87231445 C-218.32666992 37.93258789 -217.89870117 36.99286133 -217.45776367 36.0246582 C-210.93835351 22.12512923 -201.5025427 9.71569479 -189.75463867 -0.12768555 C-188.91674805 -0.85342773 -188.07885742 -1.57916992 -187.21557617 -2.3269043 C-169.60319657 -17.2745867 -148.34757534 -24.48382364 -125.75463867 -28.12768555 C-125.07675293 -28.24337891 -124.39886719 -28.35907227 -123.70043945 -28.47827148 C-81.77115067 -35.36264192 -32.63855204 -29.2873848 0 0 Z " fill="#02A6E7" transform="translate(348.754638671875,52.127685546875)"/>
<path d="M0 0 C3.8595764 0.02547369 7.71917368 0.02739101 11.57882118 0.03210163 C18.84549732 0.0443994 26.11192484 0.0770365 33.37849283 0.11749959 C41.66906179 0.16263553 49.95964436 0.18430804 58.25030613 0.20428133 C75.26583732 0.24578553 92.28112843 0.31587237 109.29647255 0.40557575 C109.62647255 1.06557575 109.95647255 1.72557575 110.29647255 2.40557575 C109.10897255 4.73370075 109.10897255 4.73370075 107.29647255 7.65557575 C104.56586919 12.17949203 102.1057679 16.70777829 99.79647255 21.46807575 C97.17513795 26.81043777 94.23969144 31.738537 90.97616005 36.706357 C88.66404429 40.42187326 86.80100901 44.31055262 84.8863163 48.24151325 C80.67081222 56.6310914 75.78327564 64.68995355 70.92147255 72.71807575 C70.27436317 73.78670856 69.6272538 74.85534138 68.96053505 75.956357 C67.29647255 78.40557575 67.29647255 78.40557575 65.29647255 79.40557575 C62.36042936 79.54751121 59.4453266 79.63034096 56.50741005 79.67095661 C55.59659172 79.68739719 54.68577339 79.70383778 53.74735451 79.72077656 C51.76395592 79.75609078 49.78051827 79.78926022 47.79705238 79.82056713 C44.65197221 79.87073053 41.50707721 79.92753278 38.36214638 79.98627949 C29.4180553 80.15229548 20.47379503 80.30747789 11.52938271 80.4551363 C6.06098396 80.54587772 0.59280301 80.64548925 -4.87534142 80.75039577 C-6.95474879 80.78848149 -9.03422158 80.82316079 -11.11374474 80.85428905 C-14.03581325 80.89817235 -16.95748024 80.9533237 -19.8793087 81.01080036 C-20.72853401 81.02074024 -21.57775932 81.03068012 -22.45271873 81.04092121 C-34.98247821 81.32134 -44.2097158 84.26802291 -53.70352745 92.40557575 C-54.36352745 92.40557575 -55.02352745 92.40557575 -55.70352745 92.40557575 C-55.97165245 92.9572945 -56.23977745 93.50901325 -56.51602745 94.07745075 C-57.83041193 96.65433611 -59.26837621 99.14406109 -60.70352745 101.65557575 C-66.41039482 112.23415917 -67.77072183 124.11507158 -64.45352745 135.84307575 C-61.27262276 144.8114598 -56.4194527 155.6896505 -49.70352745 162.40557575 C-48.80002449 163.71976188 -47.92733891 165.05541951 -47.07852745 166.40557575 C-46.63251183 167.10682575 -46.1864962 167.80807575 -45.72696495 168.53057575 C-44.70352745 170.40557575 -44.70352745 170.40557575 -44.70352745 172.40557575 C-44.04352745 172.40557575 -43.38352745 172.40557575 -42.70352745 172.40557575 C-39.70352745 175.86711421 -39.70352745 175.86711421 -39.70352745 178.40557575 C-38.71352745 178.73557575 -37.72352745 179.06557575 -36.70352745 179.40557575 C-36.70352745 180.06557575 -36.70352745 180.72557575 -36.70352745 181.40557575 C-35.84307823 181.823232 -35.84307823 181.823232 -34.9652462 182.24932575 C-32.75157267 183.38101377 -30.64968449 184.63082255 -28.51602745 185.90557575 C-18.13154951 191.67662169 -8.06715237 191.10102747 3.1753788 188.31963825 C9.98550117 186.32518439 15.11102872 183.21159686 20.29647255 178.40557575 C20.62647255 177.74557575 20.95647255 177.08557575 21.29647255 176.40557575 C21.95647255 176.40557575 22.61647255 176.40557575 23.29647255 176.40557575 C23.29647255 175.74557575 23.29647255 175.08557575 23.29647255 174.40557575 C23.95647255 174.40557575 24.61647255 174.40557575 25.29647255 174.40557575 C25.62647255 173.08557575 25.95647255 171.76557575 26.29647255 170.40557575 C29.77328661 171.56451377 29.96938484 172.06682068 31.67928505 175.13213825 C32.33996986 176.29773273 32.33996986 176.29773273 33.01400185 177.48687458 C33.47846718 178.32629597 33.94293251 179.16571735 34.42147255 180.03057575 C35.40870266 181.77726402 36.39699685 183.52335128 37.3863163 185.268857 C37.87728798 186.13977985 38.36825966 187.01070271 38.87410927 187.90801716 C40.85195013 191.38095091 42.90979344 194.80210345 44.98397255 198.21807575 C47.84640547 202.95066523 50.6352221 207.71686166 53.35897255 212.53057575 C55.9945382 217.18095506 58.71985021 221.74544046 61.54647255 226.28057575 C64.41231772 230.88962203 66.98624813 235.49634886 69.29647255 240.40557575 C63.54647255 245.40557575 63.54647255 245.40557575 61.29647255 245.40557575 C61.29647255 246.06557575 61.29647255 246.72557575 61.29647255 247.40557575 C38.40697953 264.03676328 10.55861817 272.01257044 -17.70352745 270.40557575 C-18.66863243 270.35191853 -18.66863243 270.35191853 -19.65323448 270.29717731 C-42.02340452 268.88323808 -62.85930529 260.96337444 -80.70352745 247.40557575 C-81.48985558 246.84483356 -82.2761837 246.28409138 -83.08633995 245.706357 C-87.28527615 242.6851712 -87.28527615 242.6851712 -88.70352745 241.40557575 C-88.70352745 240.74557575 -88.70352745 240.08557575 -88.70352745 239.40557575 C-89.53497276 239.07493122 -89.53497276 239.07493122 -90.38321495 238.737607 C-115.30911607 224.4282934 -134.97046822 182.13152256 -142.10172081 155.81988239 C-144.98805715 144.24058014 -146.24924496 133.50050371 -146.14102745 121.59307575 C-146.13698906 120.84756458 -146.13295067 120.10205341 -146.1287899 119.333951 C-145.95056614 95.84330445 -139.95219015 73.56657982 -125.70352745 54.40557575 C-125.29876183 53.85852985 -124.8939962 53.31148396 -124.47696495 52.74786091 C-118.83969717 45.18823537 -112.99063379 37.45947948 -105.70352745 31.40557575 C-105.04352745 31.40557575 -104.38352745 31.40557575 -103.70352745 31.40557575 C-103.70352745 30.74557575 -103.70352745 30.08557575 -103.70352745 29.40557575 C-100.21196145 26.50790229 -96.42335392 24.00069029 -92.70352745 21.40557575 C-91.9868087 20.87319294 -91.27008995 20.34081013 -90.53165245 19.7922945 C-64.50633629 1.08029393 -30.76639002 -0.23837773 0 0 Z " fill="#FCCD0C" transform="translate(173.70352745056152,174.5944242477417)"/>
<path d="M0 0 C9.99743678 1.66308967 19.39609696 6.27585754 27.875 11.6875 C28.47562256 12.06777344 29.07624512 12.44804687 29.69506836 12.83984375 C33.8698806 15.6096418 33.8698806 15.6096418 35 19 C36.32354951 19.37027771 37.65874934 19.70010742 39 20 C41.12938809 21.88929601 43.09551786 23.76828666 45.0625 25.8125 C45.85624023 26.61397461 45.85624023 26.61397461 46.66601562 27.43164062 C54 34.91285681 54 34.91285681 54 38 C54.66 38 55.32 38 56 38 C60 43.41176471 60 43.41176471 60 46 C60.66 46 61.32 46 62 46 C73.09152758 66.04860311 81.44912477 84.81533827 82 108 C82.03996094 109.0621875 82.07992188 110.124375 82.12109375 111.21875 C83.02012519 151.41074396 59.56741763 194.65578884 32.90625 223.37109375 C25.34304705 231.26350971 25.34304705 231.26350971 20 233 C20 233.66 20 234.32 20 235 C-6.46309567 256.58368767 -39.12808199 262.30832071 -72.38671875 259.7265625 C-91.53335229 257.36936952 -110.50794937 249.30898675 -126 238 C-127.04285156 237.26523437 -128.08570313 236.53046875 -129.16015625 235.7734375 C-134.49565618 231.92553049 -139.21847912 228.11712571 -143.37109375 223.00390625 C-145.09459558 220.88362702 -146.94114345 218.92790905 -148.8125 216.9375 C-154.28163205 210.82619981 -158.56586346 203.87373583 -163 197 C-163.66 196.01 -164.32 195.02 -165 194 C-165 193.01 -165 192.02 -165 191 C-165.66 191 -166.32 191 -167 191 C-171.51300564 183.00696557 -176.02350565 175.01576354 -180.3828125 166.9375 C-181.68743428 164.56775222 -183.01753193 162.21908264 -184.3671875 159.875 C-184.78097656 159.15248047 -185.19476563 158.42996094 -185.62109375 157.68554688 C-186.4438615 156.25147037 -187.27182445 154.8203594 -188.10546875 153.39257812 C-191 148.33460857 -191 148.33460857 -191 145 C-191.66 145 -192.32 145 -193 145 C-193.30550781 144.42636719 -193.61101562 143.85273438 -193.92578125 143.26171875 C-197.7911737 136.08624375 -201.84764405 129.03169566 -205.95239258 121.9909668 C-208.16716877 118.18735528 -210.3562589 114.37456315 -212.48046875 110.51953125 C-214.21947909 107.37055895 -216.01539865 104.26446487 -217.859375 101.17578125 C-218.33503906 100.37462891 -218.81070313 99.57347656 -219.30078125 98.74804688 C-220.2761698 97.10881571 -221.25807505 95.47344656 -222.24609375 93.84179688 C-222.71660156 93.04451172 -223.18710938 92.24722656 -223.671875 91.42578125 C-224.30754395 90.36484253 -224.30754395 90.36484253 -224.95605469 89.2824707 C-226.20680179 86.54785081 -226.61337779 83.97022781 -227 81 C-205.41910125 80.44592571 -183.8390659 79.90107769 -162.25 79.875 C-161.5310556 79.87250244 -160.81211121 79.87000488 -160.07138062 79.86743164 C-139.49309212 79.80806234 -139.49309212 79.80806234 -136.16015625 82.46875 C-135.79792969 83.1390625 -135.43570313 83.809375 -135.0625 84.5 C-134.59585938 85.31210937 -134.12921875 86.12421875 -133.6484375 86.9609375 C-133.10445313 87.96382813 -132.56046875 88.96671875 -132 90 C-131.24742166 91.28692935 -130.48917265 92.57055233 -129.7265625 93.8515625 C-128.00324557 96.74743518 -126.29400176 99.65074318 -124.59765625 102.5625 C-121.78984891 107.37288053 -118.92415102 112.14740302 -116.04370117 116.91455078 C-115.02371022 118.60644245 -114.01178719 120.30318957 -113 122 C-112.43297363 122.9295752 -112.43297363 122.9295752 -111.85449219 123.87792969 C-109 128.66214881 -109 128.66214881 -109 132 C-108.34 132 -107.68 132 -107 132 C-105.62404676 134.43696607 -104.24918433 136.87453662 -102.875 139.3125 C-102.2564917 140.40812256 -102.2564917 140.40812256 -101.62548828 141.52587891 C-99.32192295 145.61580923 -97.07169051 149.72635896 -94.875 153.875 C-88.03471687 166.3716711 -81.24464037 173.64169114 -68 179 C-67.34 179.33 -66.68 179.66 -66 180 C-49.52848259 180.98991385 -37.88019861 179.13963123 -25 168 C-24.443125 167.2575 -23.88625 166.515 -23.3125 165.75 C-22.879375 165.1725 -22.44625 164.595 -22 164 C-21.34 164 -20.68 164 -20 164 C-19.77054688 163.34644531 -19.54109375 162.69289063 -19.3046875 162.01953125 C-17.57962111 158.02708719 -15.36907859 154.40691306 -13.125 150.6875 C-4.04066765 135.60535178 3.06072581 121.06513321 1 103 C-1.63803834 92.47140057 -7.66022605 85.57073099 -16 79 C-16 78.34 -16 77.68 -16 77 C-16.55171875 76.87625 -17.1034375 76.7525 -17.671875 76.625 C-20.28331862 75.92394131 -22.72991937 74.97923133 -25.25 74 C-29.90895872 72.2739965 -34.05743084 71.37302409 -39 71 C-38.46214123 65.91026239 -35.98502283 62.20926912 -33.375 57.9375 C-32.45561046 56.40371698 -31.53633998 54.86986259 -30.6171875 53.3359375 C-30.16698242 52.59053711 -29.71677734 51.84513672 -29.25292969 51.07714844 C-22.89611069 40.53860283 -16.94613389 29.77320718 -11 19 C-10.34 19 -9.68 19 -9 19 C-8.89558594 18.4534375 -8.79117188 17.906875 -8.68359375 17.34375 C-7.84407207 14.46538994 -6.53047453 12.11292287 -5.0625 9.5 C-3.30771629 6.36122225 -1.57782132 3.2318659 0 0 Z " fill="#5EC3B6" transform="translate(394,183)"/>
<path d="M0 0 C0.33 0 0.66 0 1 0 C1 2.31 1 4.62 1 7 C0.34 7 -0.32 7 -1 7 C-1 21.85 -1 36.7 -1 52 C24.74 52 50.48 52 77 52 C75.68 49.03 74.36 46.06 73 43 C72.51416016 40.14575195 72.51416016 40.14575195 72.5390625 37.73828125 C72.54292969 36.84689453 72.54679687 35.95550781 72.55078125 35.03710938 C72.58751953 33.68842773 72.58751953 33.68842773 72.625 32.3125 C72.62628906 31.40177734 72.62757813 30.49105469 72.62890625 29.55273438 C72.69289966 24.65723867 73.09806363 20.58747053 75 16 C75.66 16 76.32 16 77 16 C77.33 14.02 77.66 12.04 78 10 C78.66 10 79.32 10 80 10 C80 9.01 80 8.02 80 7 C80.99 7.33 81.98 7.66 83 8 C82.401875 8.99 81.80375 9.98 81.1875 11 C75.74078141 20.67661706 73.57125079 30.33114892 76.375 41.3125 C76.65085937 42.23675781 76.92671875 43.16101563 77.2109375 44.11328125 C78 47 78 47 79 54 C52.27 54 25.54 54 -2 54 C-7.16027926 38.51916223 -5.50199732 15.18828671 0 0 Z " fill="#60C2E5" transform="translate(122,112)"/>
<path d="M0 0 C3.8595764 0.02547369 7.71917368 0.02739101 11.57882118 0.03210163 C18.84549732 0.0443994 26.11192484 0.0770365 33.37849283 0.11749959 C41.66906179 0.16263553 49.95964436 0.18430804 58.25030613 0.20428133 C75.26583732 0.24578553 92.28112843 0.31587237 109.29647255 0.40557575 C109.62647255 1.06557575 109.95647255 1.72557575 110.29647255 2.40557575 C109.10897255 4.73370075 109.10897255 4.73370075 107.29647255 7.65557575 C103.75465643 13.51128377 100.72525776 19.49404609 97.7769413 25.6672945 C96.29647255 28.40557575 96.29647255 28.40557575 94.29647255 29.40557575 C94.10897255 27.09307575 94.10897255 27.09307575 94.29647255 24.40557575 C94.7553788 23.96858356 95.21428505 23.53159138 95.68709755 23.081357 C98.37353072 20.28407586 99.00525247 16.64223265 100.1363163 12.99932575 C101.29647255 10.40557575 101.29647255 10.40557575 103.3003788 8.93682575 C106.02367285 6.84772347 106.32554364 4.62738058 107.29647255 1.40557575 C89.58146004 1.64310527 71.86653365 1.88622799 54.15169048 2.13606644 C45.92695481 2.25193128 37.70220115 2.3659442 29.47738075 2.47564411 C22.31121405 2.5712287 15.14510445 2.67024037 7.97904295 2.77342135 C4.18234019 2.82796727 0.38563081 2.88076038 -3.41115189 2.92945385 C-6.98077855 2.9752881 -10.55031096 3.02568516 -14.11982346 3.07966518 C-16.0626271 3.10783317 -18.00549999 3.1310887 -19.94836998 3.15423298 C-21.0940696 3.17243595 -22.23976921 3.19063892 -23.420187 3.2093935 C-24.42217597 3.2232204 -25.42416494 3.23704729 -26.45651722 3.25129318 C-28.6732399 3.15628518 -28.6732399 3.15628518 -29.70352745 4.40557575 C-31.80517729 4.56747175 -33.91036829 4.68392254 -36.01602745 4.78057575 C-41.95609132 5.14918602 -47.27369986 6.19355232 -52.99258995 7.77276325 C-56.67837739 8.63313438 -59.93768805 8.62283572 -63.70352745 8.40557575 C-50.90183792 -4.39611377 -16.93455085 -0.13120876 0 0 Z " fill="#F0D662" transform="translate(173.70352745056152,174.5944242477417)"/>
<path d="M0 0 C0.495 0.99 0.495 0.99 1 2 C-0.6635396 4.27110563 -2.03665128 5.79362436 -4.85812759 6.39806175 C-7.25003718 6.56638404 -9.61819752 6.61414447 -12.01611328 6.62182617 C-12.92722366 6.64031113 -13.83833405 6.65879608 -14.77705383 6.67784119 C-17.79147175 6.73454694 -20.80551411 6.7636666 -23.8203125 6.79296875 C-25.92059388 6.82787091 -28.02084522 6.86462568 -30.12106323 6.90315247 C-35.65726879 7.00026899 -41.19354369 7.07459872 -46.73016357 7.14349365 C-54.50861884 7.24432367 -62.2866265 7.37560915 -70.06466675 7.50398254 C-74.20483569 7.57226594 -78.34498467 7.63185131 -82.48538208 7.68437195 C-84.39276188 7.71165472 -86.30014107 7.73898098 -88.20751953 7.76635742 C-89.05360275 7.77517944 -89.89968597 7.78400146 -90.77140808 7.79309082 C-96.55704647 7.88211619 -102.25176254 8.34343034 -108 9 C-106.51165771 6.53448486 -106.51165771 6.53448486 -104 4 C-101.0727575 3.52658483 -98.73450265 3.37447113 -95.81347656 3.44824219 C-94.9900325 3.44911835 -94.16658844 3.44999451 -93.31819153 3.45089722 C-90.59164393 3.45948577 -87.86681935 3.50330941 -85.140625 3.546875 C-83.23412365 3.55875458 -81.32760616 3.56825944 -79.42108154 3.57550049 C-74.38972292 3.60027835 -69.3591 3.65412381 -64.32806396 3.71496582 C-57.28807437 3.79509419 -50.24774478 3.83680328 -43.2074585 3.88165283 C-39.46300491 3.90553693 -35.71893307 3.94058403 -31.97467041 3.98504639 C-21.59613729 4.09160726 -11.3496882 3.82433155 -1 3 C-0.67 2.01 -0.34 1.02 0 0 Z " fill="#F5D75D" transform="translate(242,248)"/>
<path d="M0 0 C28.71 0 57.42 0 87 0 C87.495 0.99 87.495 0.99 88 2 C86.8125 4.328125 86.8125 4.328125 85 7.25 C81.45818388 13.10570802 78.42878521 19.08847033 75.48046875 25.26171875 C74 28 74 28 72 29 C71.8125 26.6875 71.8125 26.6875 72 24 C72.45890625 23.56300781 72.9178125 23.12601563 73.390625 22.67578125 C76.07705817 19.87850011 76.70877992 16.2366569 77.83984375 12.59375 C79 10 79 10 81.00390625 8.53125 C83.70375721 6.75619508 83.70375721 6.75619508 85 1 C56.95 1 28.9 1 0 1 C0 0.67 0 0.34 0 0 Z " fill="#EDD471" transform="translate(196,175)"/>
<path d="M0 0 C0 0.33 0 0.66 0 1 C-22.11 1 -44.22 1 -67 1 C-67 0.67 -67 0.34 -67 0 C-45.2628592 -3.38133301 -21.70542927 -3.66115674 0 0 Z " fill="#5DBFE1" transform="translate(290,24)"/>
<path d="M0 0 C11.57570292 17.36355438 10.27460389 44.49856431 7 64 C6.67 64 6.34 64 6 64 C6.01571045 63.06841064 6.0314209 62.13682129 6.04760742 61.17700195 C6.0993283 57.65627256 6.13663319 54.13595805 6.16479492 50.61499023 C6.17970277 49.10320589 6.20003634 47.59146337 6.22631836 46.07983398 C6.39283319 36.24239888 5.6565899 27.55342483 3 18 C2.67311914 16.6052781 2.35494357 15.20844573 2.05078125 13.80859375 C1.5533379 11.53719899 1.05328382 9.26637461 0.55078125 6.99609375 C0 4 0 4 0 0 Z " fill="#69C3E5" transform="translate(382,101)"/>
<path d="M0 0 C0.33 0 0.66 0 1 0 C1 2.31 1 4.62 1 7 C0.34 7 -0.32 7 -1 7 C-0.98952637 8.26183105 -0.97905273 9.52366211 -0.96826172 10.82373047 C-0.93213101 15.49394914 -0.90912484 20.16415539 -0.89013672 24.83447266 C-0.88006329 26.85793127 -0.86640405 28.88137528 -0.84912109 30.90478516 C-0.82493153 33.80895589 -0.81353051 36.71293461 -0.8046875 39.6171875 C-0.79436493 40.52556366 -0.78404236 41.43393982 -0.77340698 42.36984253 C-0.77325592 43.21056305 -0.77310486 44.05128357 -0.77294922 44.91748047 C-0.768508 45.65916473 -0.76406677 46.400849 -0.75949097 47.16500854 C-1 49 -1 49 -3 51 C-5.78300144 15.96399977 -5.78300144 15.96399977 0 0 Z " fill="#48B7E1" transform="translate(122,112)"/>
<path d="M0 0 C-1.57199337 3.85852918 -3.82889891 6.32218131 -7 9 C-9.31347872 9.73260159 -11.645752 10.411438 -14 11 C-14.33 11.66 -14.66 12.32 -15 13 C-16.32 13 -17.64 13 -19 13 C-19.20625 13.5775 -19.4125 14.155 -19.625 14.75 C-21.5274665 17.863127 -23.86294893 19.20739939 -27 21 C-27.99 21 -28.98 21 -30 21 C-28.37660195 19.29115995 -26.70680947 17.62553283 -25 16 C-24.34 16 -23.68 16 -23 16 C-23 15.34 -23 14.68 -23 14 C-19.50888699 11.10270247 -15.72404658 8.58814048 -12 6 C-11.13246094 5.38640625 -10.26492187 4.7728125 -9.37109375 4.140625 C-3.38690476 0 -3.38690476 0 0 0 Z " fill="#F8D445" transform="translate(93,190)"/>
<path d="M0 0 C0.99 0.33 1.98 0.66 3 1 C2.401875 1.99 1.80375 2.98 1.1875 4 C-5.96319011 16.70388561 -5.66061117 28.01936074 -2 42 C-5 41 -5 41 -6.171875 39.08984375 C-7.38223754 34.57382126 -7.28859737 30.21669894 -7.25 25.5625 C-7.25773438 24.63373047 -7.26546875 23.70496094 -7.2734375 22.74804688 C-7.25925893 17.7678227 -6.96283272 13.66562222 -5 9 C-4.34 9 -3.68 9 -3 9 C-2.67 7.02 -2.34 5.04 -2 3 C-1.34 3 -0.68 3 0 3 C0 2.01 0 1.02 0 0 Z " fill="#4AB7DC" transform="translate(202,119)"/>
<path d="M0 0 C1.32 0.33 2.64 0.66 4 1 C4 2.65 4 4.3 4 6 C4.99 6.33 5.98 6.66 7 7 C8.64820195 9.60242414 9 10.86248779 9 14 C10.98 13.67 12.96 13.34 15 13 C14.34 15.31 13.68 17.62 13 20 C13.66 20 14.32 20 15 20 C15 21.32 15 22.64 15 24 C15.66 24 16.32 24 17 24 C19.125 28.625 19.125 28.625 18 32 C13.79998547 25.57571742 9.8595172 19.09410366 6.26171875 12.3125 C4.95572532 9.83779758 4.95572532 9.83779758 3 7 C3 6.01 3 5.02 3 4 C2.34 4 1.68 4 1 4 C0.67 2.68 0.34 1.36 0 0 Z " fill="#30AEDF" transform="translate(264,252)"/>
<path d="M0 0 C1.25296875 -0.00642769 1.25296875 -0.00642769 2.53125 -0.01298523 C4.30321345 -0.01873099 6.0752005 -0.01922698 7.84716797 -0.01489258 C10.52483981 -0.01176277 13.20137349 -0.03508188 15.87890625 -0.06054688 C24.83976629 -0.09226284 33.05740087 0.07845083 41.5625 3.30078125 C41.5625 3.96078125 41.5625 4.62078125 41.5625 5.30078125 C43.2125 5.30078125 44.8625 5.30078125 46.5625 5.30078125 C47.0575 7.28078125 47.0575 7.28078125 47.5625 9.30078125 C44.5905615 8.17626398 42.22809313 7.07784334 39.5625 5.30078125 C28.81097553 1.57781715 17.96173141 1.94565875 6.75 2.11328125 C4.9785271 2.12836659 3.20704166 2.14204813 1.43554688 2.15429688 C-2.85578474 2.18697179 -7.14649961 2.23853733 -11.4375 2.30078125 C-7.60339435 -0.25528918 -4.44589043 -0.00504556 0 0 Z " fill="#7FD0ED" transform="translate(246.4375,100.69921875)"/>
<path d="M0 0 C4.17087411 1.39029137 5.18208698 4.27843718 7.1875 7.9375 C7.55552734 8.58396484 7.92355469 9.23042969 8.30273438 9.89648438 C11 14.71553224 11 14.71553224 11 17 C10.34 17 9.68 17 9 17 C5.3357387 13.14168125 3.39208719 9.35852494 3 4 C0.55519921 4.18828772 0.55519921 4.18828772 -2 5 C-3.14209817 6.78228936 -3.14209817 6.78228936 -4 9 C-6.2119413 11.9968237 -7.88101106 13.92067404 -11 16 C-13.1875 15.625 -13.1875 15.625 -15 15 C-14.36191406 14.51789063 -13.72382813 14.03578125 -13.06640625 13.5390625 C-12.24011719 12.90742188 -11.41382813 12.27578125 -10.5625 11.625 C-9.73878906 10.99851562 -8.91507813 10.37203125 -8.06640625 9.7265625 C-5.91471908 8.16246096 -5.91471908 8.16246096 -5 6 C-4.34 6 -3.68 6 -3 6 C-3 5.34 -3 4.68 -3 4 C-2.34 4 -1.68 4 -1 4 C-0.67 2.68 -0.34 1.36 0 0 Z " fill="#F4DB68" transform="translate(200,345)"/>
<path d="M0 0 C0.33 0 0.66 0 1 0 C1.02689216 1.47906892 1.04634621 2.95827483 1.0625 4.4375 C1.07410156 5.26121094 1.08570313 6.08492188 1.09765625 6.93359375 C1 9 1 9 0 10 C-0.08775605 12.14558827 -0.10695219 14.29404421 -0.09765625 16.44140625 C-0.09443359 17.74658203 -0.09121094 19.05175781 -0.08789062 20.39648438 C-0.07953401 21.7851569 -0.07106905 23.17382877 -0.0625 24.5625 C-0.05748666 25.95507656 -0.05292347 27.34765481 -0.04882812 28.74023438 C-0.03699434 32.1601987 -0.0205088 35.58007844 0 39 C0.33 39 0.66 39 1 39 C1 43.62 1 48.24 1 53 C0.67 53 0.34 53 0 53 C-2.21699987 44.78977782 -2.30810651 36.64902588 -2.26074219 28.21362305 C-2.2500041 25.93836931 -2.26069798 23.66390199 -2.2734375 21.38867188 C-2.27947447 14.02326335 -2.04107389 7.1356591 0 0 Z " fill="#F6D95F" transform="translate(30,270)"/>
<path d="M0 0 C0.33 0 0.66 0 1 0 C1.58365019 9.92205323 1.58365019 9.92205323 -2 14 C-3.66392045 14.67349161 -5.33032028 15.3409159 -7 16 C-7.88693303 18.04105639 -7.88693303 18.04105639 -8 20 C-8.66 20 -9.32 20 -10 20 C-8.8905928 16.51329166 -7.73662334 13.22515763 -6 10 C-5.34 10 -4.68 10 -4 10 C-4 8.68 -4 7.36 -4 6 C-3.34 6 -2.68 6 -2 6 C-1.855625 5.38125 -1.71125 4.7625 -1.5625 4.125 C-1 2 -1 2 0 0 Z " fill="#3BB4E3" transform="translate(279,211)"/>
<path d="M0 0 C0.99 0.33 1.98 0.66 3 1 C2.41992188 2.02738281 1.83984375 3.05476562 1.2421875 4.11328125 C-3.2306207 12.04448584 -7.67184288 19.98866604 -12 28 C-13.15941038 24.52176885 -12.70820884 22.54104422 -12 19 C-11.34 19 -10.68 19 -10 19 C-9.22227595 16.66682784 -8.57584432 14.38564077 -8 12 C-7.01 12 -6.02 12 -5 12 C-4.67 10.35 -4.34 8.7 -4 7 C-3.34 7 -2.68 7 -2 7 C-2 6.01 -2 5.02 -2 4 C-1.34 4 -0.68 4 0 4 C0 2.68 0 1.36 0 0 Z " fill="#F7DA5F" transform="translate(265,205)"/>
<path d="M0 0 C-0.33 0.66 -0.66 1.32 -1 2 C-3.73828125 2.30859375 -3.73828125 2.30859375 -7.3125 2.4375 C-13.27108606 2.76482823 -18.55590162 3.78403584 -24.2890625 5.3671875 C-27.97484993 6.22755863 -31.2341606 6.21725997 -35 6 C-30.55160038 1.55160038 -23.06098272 1.49256531 -17.0625 0.875 C-16.30259766 0.78863281 -15.54269531 0.70226562 -14.75976562 0.61328125 C-9.81195683 0.08089533 -4.97571721 -0.07924919 0 0 Z " fill="#F7CC29" transform="translate(145,177)"/>
<path d="M0 0 C0.99 0.33 1.98 0.66 3 1 C3 1.66 3 2.32 3 3 C3.66 3 4.32 3 5 3 C5 3.66 5 4.32 5 5 C5.99 4.67 6.98 4.34 8 4 C7.979375 4.9075 7.95875 5.815 7.9375 6.75 C7.9889755 9.42672588 8.2215017 11.46988052 9 14 C9.66 14 10.32 14 11 14 C11.99 16.97 12.98 19.94 14 23 C13.34 23 12.68 23 12 23 C6.140625 12.74609375 6.140625 12.74609375 5.08007812 10.88232422 C4.34287852 9.59755727 3.59634655 8.31811155 2.84179688 7.04345703 C0 2.21064815 0 2.21064815 0 0 Z " fill="#46B9E2" transform="translate(284,286)"/>
<path d="M0 0 C-0.99 0 -1.98 0 -3 0 C-3 0.66 -3 1.32 -3 2 C-4.30324219 2.29003906 -4.30324219 2.29003906 -5.6328125 2.5859375 C-7.36144531 2.97652344 -7.36144531 2.97652344 -9.125 3.375 C-10.83042969 3.75785156 -10.83042969 3.75785156 -12.5703125 4.1484375 C-15.9838219 4.94131048 -15.9838219 4.94131048 -19.15625 6.09375 C-22.97014522 7.30916716 -26.02141321 7.13719265 -30 7 C-23.10378632 2.40252421 -8.20349443 -2.53396828 0 0 Z " fill="#5DC0E3" transform="translate(222,26)"/>
<path d="M0 0 C1.17961349 3.53884047 0.99040746 6.20983919 0.875 9.9375 C0.74412114 16.99204291 1.88625514 23.24356553 4 30 C3.34 30 2.68 30 2 30 C-2.05788649 23.91317027 -2.32477384 17.22851521 -2.25 10.125 C-2.25773437 9.36703125 -2.26546875 8.6090625 -2.2734375 7.828125 C-2.25359933 2.25359933 -2.25359933 2.25359933 0 0 Z " fill="#F5D659" transform="translate(107,287)"/>
<path d="M0 0 C3.3 0 6.6 0 10 0 C7.40445735 2.59554265 6.15821802 3.58694797 2.98046875 5.0078125 C2.20509766 5.35457031 1.42972656 5.70132812 0.63085938 6.05859375 C-0.57860352 6.58646484 -0.57860352 6.58646484 -1.8125 7.125 C-2.60720703 7.48464844 -3.40191406 7.84429687 -4.22070312 8.21484375 C-8.48005918 10.09614742 -12.32096659 11.50271142 -17 12 C-17 11.34 -17 10.68 -17 10 C-13.535 9.505 -13.535 9.505 -10 9 C-10 8.34 -10 7.68 -10 7 C-8.68 7 -7.36 7 -6 7 C-6 6.34 -6 5.68 -6 5 C-4.35 5 -2.7 5 -1 5 C-0.67 3.35 -0.34 1.7 0 0 Z " fill="#F5D95C" transform="translate(214,428)"/>
<path d="M0 0 C0.99 0 1.98 0 3 0 C3 8.58 3 17.16 3 26 C2.34 26 1.68 26 1 26 C0.34 27.32 -0.32 28.64 -1 30 C-2 28 -2 28 -1.40625 25.99609375 C-1.1071875 25.15175781 -0.808125 24.30742187 -0.5 23.4375 C1.79836618 15.63761477 0.77595883 7.97461299 0 0 Z " fill="#37B2DB" transform="translate(310,132)"/>
<path d="M0 0 C0.99 0.495 0.99 0.495 2 1 C2 1.99 2 2.98 2 4 C2.66 4 3.32 4 4 4 C4.4813341 5.72856459 4.95996971 7.45788071 5.4375 9.1875 C5.70433594 10.15042969 5.97117187 11.11335938 6.24609375 12.10546875 C6.92880018 14.72663697 7.49892195 17.338935 8 20 C8.66 20 9.32 20 10 20 C10.86580287 21.93232821 11.71729941 23.87107194 12.5625 25.8125 C13.27599609 27.43091797 13.27599609 27.43091797 14.00390625 29.08203125 C15 32 15 32 14 35 C1.53784846 10.91063016 1.53784846 10.91063016 0 0 Z " fill="#F6DA63" transform="translate(33,332)"/>
<path d="M0 0 C2.40575607 2.18517099 3.79535581 4.25919671 5.1875 7.1875 C5.53167969 7.90292969 5.87585938 8.61835938 6.23046875 9.35546875 C6.48441406 9.89816406 6.73835937 10.44085938 7 11 C4.03 13.475 4.03 13.475 1 16 C-1 15 -1 15 -1.8125 13.1875 C-2 11 -2 11 -0.5 9.1875 C1.39139183 6.92329527 1.39139183 6.92329527 0.6875 3.25 C0.460625 2.1775 0.23375 1.105 0 0 Z " fill="#F7D22A" transform="translate(236,404)"/>
<path d="M0 0 C0.88852764 2.48787739 1.17660068 3.58372698 0.125 6.0625 C-0.24625 6.701875 -0.6175 7.34125 -1 8 C-1.33 8.99 -1.66 9.98 -2 11 C-2.66 11 -3.32 11 -4 11 C-4 11.99 -4 12.98 -4 14 C-4.66 14 -5.32 14 -6 14 C-6.103125 14.556875 -6.20625 15.11375 -6.3125 15.6875 C-7.14704296 18.49459905 -8.31772698 20.60599609 -10 23 C-10.99 23.33 -11.98 23.66 -13 24 C-11.44477116 19.74528069 -9.33489182 15.90267659 -7.0625 12 C-6.71509766 11.39671875 -6.36769531 10.7934375 -6.00976562 10.171875 C-4.0407528 6.76040268 -2.03685694 3.37134942 0 0 Z " fill="#8CCDC7" transform="translate(381,206)"/>
<path d="M0 0 C0.33 1.32 0.66 2.64 1 4 C0.34 4 -0.32 4 -1 4 C-1 4.99 -1 5.98 -1 7 C-0.34 7.33 0.32 7.66 1 8 C0.67 9.98 0.34 11.96 0 14 C-0.66 13.67 -1.32 13.34 -2 13 C-3.67654729 13.27942455 -5.34608154 13.60828247 -7 14 C-6.44010697 10.00987629 -5.24330232 7.4744948 -2.9375 4.1875 C-2.38964844 3.39730469 -1.84179688 2.60710937 -1.27734375 1.79296875 C-0.64505859 0.90544922 -0.64505859 0.90544922 0 0 Z " fill="#32B4E5" transform="translate(142,70)"/>
<path d="M0 0 C0.33 0 0.66 0 1 0 C1.99294066 13.97209355 2.50742317 27.11962175 0 41 C-0.33 41 -0.66 41 -1 41 C-1.2032114 27.31709918 -0.5839284 13.66796237 0 0 Z " fill="#91CEC7" transform="translate(474,275)"/>
<path d="M0 0 C0.33 0.99 0.66 1.98 1 3 C1.66 3 2.32 3 3 3 C1.56691865 6.95906817 -0.33141949 10.28718181 -2.625 13.8125 C-3.57246094 15.27623047 -3.57246094 15.27623047 -4.5390625 16.76953125 C-5.02117187 17.50558594 -5.50328125 18.24164063 -6 19 C-7.13583456 15.28272326 -6.66670026 13.52948291 -5 10 C-4.01 10 -3.02 10 -2 10 C-2 7.03 -2 4.06 -2 1 C-1.34 0.67 -0.68 0.34 0 0 Z " fill="#38B6E6" transform="translate(330,274)"/>
<path d="M0 0 C0.33 1.32 0.66 2.64 1 4 C0.01 4 -0.98 4 -2 4 C-2 4.66 -2 5.32 -2 6 C-2.66 6 -3.32 6 -4 6 C-4 6.66 -4 7.32 -4 8 C-4.99 8 -5.98 8 -7 8 C-7 8.66 -7 9.32 -7 10 C-8.75 12.1875 -8.75 12.1875 -11 14 C-13.25 13.75 -13.25 13.75 -15 13 C-10.3617825 8.22123046 -5.5524083 3.70160553 0 0 Z " fill="#37AEDD" transform="translate(168,45)"/>
<path d="M0 0 C1.65 0 3.3 0 5 0 C2.75311692 2.41146369 0.39306674 4.1566789 -2.375 5.9375 C-5.73460754 8.13522043 -8.91984629 10.41664527 -12 13 C-11.67 11.68 -11.34 10.36 -11 9 C-10.34 9 -9.68 9 -9 9 C-9 8.34 -9 7.68 -9 7 C-8.34 7 -7.68 7 -7 7 C-7 5.68 -7 4.36 -7 3 C-6.01 3 -5.02 3 -4 3 C-3.67 2.34 -3.34 1.68 -3 1 C-2.01 1.33 -1.02 1.66 0 2 C0 1.34 0 0.68 0 0 Z " fill="#4CBAE0" transform="translate(217,105)"/>
<path d="M0 0 C1.29227216 4.18142349 0.54613006 6.90275533 -1 11 C-1.99 11.33 -2.98 11.66 -4 12 C-3.67 13.65 -3.34 15.3 -3 17 C-4.65 17.99 -6.3 18.98 -8 20 C-5.83836487 13.06001352 -3.1063786 6.56882431 0 0 Z " fill="#F7D652" transform="translate(43,236)"/>
<path d="M0 0 C5.52217953 8.2832693 6.62186578 17.25743614 6 27 C3.77338275 23.66007412 3.51283738 21.68785848 3 17.75 C2.48286855 14.06030812 1.97701497 10.499647 0.875 6.9375 C0 4 0 4 0 0 Z " fill="#53BCDF" transform="translate(382,101)"/>
<path d="M0 0 C4.01974427 3.82832787 7.04623839 8.31472296 10 13 C10 13.66 10 14.32 10 15 C9.34 15 8.68 15 8 15 C8 14.34 8 13.68 8 13 C7.38125 12.690625 6.7625 12.38125 6.125 12.0625 C4.75 11.375 3.375 10.6875 2 10 C2 10.66 2 11.32 2 12 C1.34 11.67 0.68 11.34 0 11 C0.66 9.68 1.32 8.36 2 7 C1.34 6.01 0.68 5.02 0 4 C0 2.68 0 1.36 0 0 Z " fill="#F6D63B" transform="translate(118,330)"/>
<path d="M0 0 C3.18019683 2.9238411 5.25351309 5.83401169 7.3125 9.625 C7.84488281 10.58664063 8.37726563 11.54828125 8.92578125 12.5390625 C9.28027344 13.35117188 9.63476562 14.16328125 10 15 C9.67 15.66 9.34 16.32 9 17 C4 11.5 4 11.5 4 7 C2.68 6.67 1.36 6.34 0 6 C-0.38218767 4.34385343 -0.71395102 2.67542976 -1 1 C-0.67 0.67 -0.34 0.34 0 0 Z " fill="#56BCE1" transform="translate(367,73)"/>
<path d="M0 0 C1 3 1 3 -0.109375 5.7421875 C-0.65078125 6.77601563 -1.1921875 7.80984375 -1.75 8.875 C-2.28109375 9.90367187 -2.8121875 10.93234375 -3.359375 11.9921875 C-4.84223578 14.71076559 -6.32675841 17.3939743 -8 20 C-8.33 20 -8.66 20 -9 20 C-9.1875 17.6875 -9.1875 17.6875 -9 15 C-8.54367187 14.56558594 -8.08734375 14.13117188 -7.6171875 13.68359375 C-5.48140916 11.46011437 -4.8881899 9.2925018 -3.9375 6.375 C-3.34594144 4.56468826 -2.71079012 2.76690338 -2 1 C-1.34 0.67 -0.68 0.34 0 0 Z " fill="#F6DA65" transform="translate(277,184)"/>
<path d="M0 0 C1.34733513 4.0420054 0.02580484 6.76603971 -1.3125 10.625 C-1.53873047 11.31851563 -1.76496094 12.01203125 -1.99804688 12.7265625 C-3.74119084 17.87059542 -3.74119084 17.87059542 -6 19 C-6 15.7 -6 12.4 -6 9 C-5.01 8.67 -4.02 8.34 -3 8 C-2.87625 7.236875 -2.7525 6.47375 -2.625 5.6875 C-2 3 -2 3 0 0 Z " fill="#59C0E5" transform="translate(386,173)"/>
<path d="M0 0 C0.66 0.99 1.32 1.98 2 3 C1.125 5.6875 1.125 5.6875 0 8 C0.7425 8.12375 1.485 8.2475 2.25 8.375 C4.80141485 8.95486701 6.7267573 9.73708739 9 11 C6.18515955 12.40742022 4.43063887 11.66652164 1.375 11.0625 C0.37210937 10.86785156 -0.63078125 10.67320312 -1.6640625 10.47265625 C-2.43492187 10.31667969 -3.20578125 10.16070312 -4 10 C-3.31620454 6.04991941 -2.21156817 3.36542982 0 0 Z " fill="#9ED8D0" transform="translate(359,244)"/>
<path d="M0 0 C1.3340394 4.00211819 0.40012984 6.07963644 -1 10 C-2.5 11.9375 -2.5 11.9375 -4 13 C-4.66 13 -5.32 13 -6 13 C-6 13.99 -6 14.98 -6 16 C-6.99 16.33 -7.98 16.66 -9 17 C-6.78458833 10.90761792 -3.34747219 5.52332912 0 0 Z " fill="#46BADF" transform="translate(301,173)"/>
<path d="M0 0 C-1.48805711 5.80342274 -4.59097555 10.17590879 -8 15 C-9.1092904 11.67212881 -9.01557588 10.3006216 -8 7 C-7.01 6.34 -6.02 5.68 -5 5 C-4.63837971 3.67405895 -4.30271961 2.34061543 -4 1 C-2 0 -2 0 0 0 Z " fill="#5EBFE1" transform="translate(357,235)"/>
<path d="M0 0 C1.65 0 3.3 0 5 0 C2.9111658 1.62464882 0.84428106 3.09183425 -1.4375 4.4375 C-4.15443908 6.09417017 -6.55197845 7.97163929 -9 10 C-9.66 9.67 -10.32 9.34 -11 9 C-11 8.01 -11 7.02 -11 6 C-9.35 6 -7.7 6 -6 6 C-5.67 4.35 -5.34 2.7 -5 1 C-3.35 1.33 -1.7 1.66 0 2 C0 1.34 0 0.68 0 0 Z " fill="#F6D959" transform="translate(129,257)"/>
<path d="M0 0 C0.66 0.33 1.32 0.66 2 1 C1.34 2.32 0.68 3.64 0 5 C-1.32 5 -2.64 5 -4 5 C-4.20625 5.5775 -4.4125 6.155 -4.625 6.75 C-6.5274665 9.863127 -8.86294893 11.20739939 -12 13 C-12.99 13 -13.98 13 -15 13 C-13.37660195 11.29115995 -11.70680947 9.62553283 -10 8 C-9.34 8 -8.68 8 -8 8 C-8 7.34 -8 6.68 -8 6 C-6.25 4.4921875 -6.25 4.4921875 -4 2.875 C-3.2575 2.33617187 -2.515 1.79734375 -1.75 1.2421875 C-1.1725 0.83226562 -0.595 0.42234375 0 0 Z " fill="#F7D659" transform="translate(78,198)"/>
<path d="M0 0 C1.32 0 2.64 0 4 0 C4 0.66 4 1.32 4 2 C4.99 1.67 5.98 1.34 7 1 C7.33 2.98 7.66 4.96 8 7 C8.66 7 9.32 7 10 7 C10.12375 7.804375 10.2475 8.60875 10.375 9.4375 C10.58125 10.283125 10.7875 11.12875 11 12 C11.66 12.33 12.32 12.66 13 13 C12.34 13.66 11.68 14.32 11 15 C10.60167969 14.38511719 10.20335937 13.77023438 9.79296875 13.13671875 C9.26316406 12.32847656 8.73335938 11.52023438 8.1875 10.6875 C7.66542969 9.88699219 7.14335937 9.08648437 6.60546875 8.26171875 C5.10018405 6.00022173 5.10018405 6.00022173 3.30078125 4.33203125 C2 3 2 3 2 1 C1.34 0.67 0.68 0.34 0 0 Z " fill="#58C1E4" transform="translate(296,112)"/>
<path d="M0 0 C0.99 0.33 1.98 0.66 3 1 C2.4225 1.66 1.845 2.32 1.25 3 C-1.3637554 6.4850072 -3.14482835 10.07919604 -5 14 C-5.6638797 15.33472318 -6.329777 16.66845077 -7 18 C-7.125 11.375 -7.125 11.375 -6 8 C-5.34 8 -4.68 8 -4 8 C-3.71125 6.865625 -3.4225 5.73125 -3.125 4.5625 C-2.75375 3.386875 -2.3825 2.21125 -2 1 C-1.34 0.67 -0.68 0.34 0 0 Z " fill="#F5D95C" transform="translate(115,268)"/>
<path d="M0 0 C6.04083144 2.50302969 11.55371798 5.37903866 17 9 C14.3333581 10.33332095 12.83319697 9.67102033 10 9 C10 8.01 10 7.02 10 6 C7.03 5.505 7.03 5.505 4 5 C4 4.34 4 3.68 4 3 C2.68 2.67 1.36 2.34 0 2 C0 1.34 0 0.68 0 0 Z " fill="#96D1CB" transform="translate(406,187)"/>
<path d="M0 0 C0.66 0 1.32 0 2 0 C2 0.99 2 1.98 2 3 C2.66 3.33 3.32 3.66 4 4 C6.27120668 6.63459975 7.1947113 8.66380395 8 12 C8.66 12.33 9.32 12.66 10 13 C10 14.65 10 16.3 10 18 C6.97599132 14.45007676 4.79231263 10.93777235 2.75 6.75 C2.22921875 5.69296875 1.7084375 4.6359375 1.171875 3.546875 C0 1 0 1 0 0 Z " fill="#94D2C8" transform="translate(167,266)"/>
<path d="M0 0 C0.66 0 1.32 0 2 0 C3.35278115 1.98689731 4.68568305 3.98745218 6 6 C6.66 6.33 7.32 6.66 8 7 C8.33 7.99 8.66 8.98 9 10 C9.66 10.33 10.32 10.66 11 11 C11.625 14.0625 11.625 14.0625 12 17 C8.67835601 13.9102726 6.23969512 10.59775869 3.75 6.8125 C3.04359375 5.74644531 2.3371875 4.68039062 1.609375 3.58203125 C0 1 0 1 0 0 Z " fill="#F7DC65" transform="translate(52,374)"/>
<path d="M0 0 C0.99 0.33 1.98 0.66 3 1 C1.6744419 4.62276315 0.05653045 7.63505348 -2.125 10.8125 C-2.66382813 11.60269531 -3.20265625 12.39289063 -3.7578125 13.20703125 C-4.37269531 14.09455078 -4.37269531 14.09455078 -5 15 C-5.61328125 13.18359375 -5.61328125 13.18359375 -6 11 C-4.73779907 8.95436401 -3.39712274 6.95597184 -2 5 C-1.28426473 3.35380887 -0.5974304 1.69271945 0 0 Z " fill="#85CAC0" transform="translate(449,370)"/>
<path d="M0 0 C1.65 0 3.3 0 5 0 C5.33 0.99 5.66 1.98 6 3 C6.99 2.67 7.98 2.34 9 2 C9.33 3.32 9.66 4.64 10 6 C9.01 6 8.02 6 7 6 C6.67 6.66 6.34 7.32 6 8 C6 7.34 6 6.68 6 6 C5.01 6 4.02 6 3 6 C2.01 4.02 1.02 2.04 0 0 Z " fill="#F8D13A" transform="translate(48,368)"/>
<path d="M0 0 C3.27075883 -0.0580476 6.54138524 -0.09361165 9.8125 -0.125 C10.74126953 -0.14175781 11.67003906 -0.15851563 12.62695312 -0.17578125 C13.51962891 -0.18222656 14.41230469 -0.18867188 15.33203125 -0.1953125 C16.15421143 -0.20578613 16.9763916 -0.21625977 17.82348633 -0.22705078 C20 0 20 0 23 2 C15.1586052 2.8895125 7.83262041 3.00220537 0 2 C0 1.34 0 0.68 0 0 Z " fill="#A0D6CD" transform="translate(211,263)"/>
<path d="M0 0 C0.66 0.33 1.32 0.66 2 1 C1.6875 2.9375 1.6875 2.9375 1 5 C0.01 5.33 -0.98 5.66 -2 6 C-2 6.99 -2 7.98 -2 9 C-2.99 9.66 -3.98 10.32 -5 11 C-5.99 10.67 -6.98 10.34 -8 10 C-5.36 6.7 -2.72 3.4 0 0 Z " fill="#4FB9E3" transform="translate(151,59)"/>
<path d="M0 0 C1.32 0.33 2.64 0.66 4 1 C2.21190303 2.17213045 0.41940875 3.33755526 -1.375 4.5 C-2.37273437 5.1496875 -3.37046875 5.799375 -4.3984375 6.46875 C-7 8 -7 8 -9 8 C-9 7.01 -9 6.02 -9 5 C-7.68 5 -6.36 5 -5 5 C-5 4.01 -5 3.02 -5 2 C-3.35 2 -1.7 2 0 2 C0 1.34 0 0.68 0 0 Z " fill="#95CFCA" transform="translate(406,420)"/>
<path d="M0 0 C0.99 0 1.98 0 3 0 C2.28028381 3.75345656 0.66887798 6.86091969 -1.0625 10.25 C-1.61035156 11.32765625 -2.15820312 12.4053125 -2.72265625 13.515625 C-3.14417969 14.33546875 -3.56570313 15.1553125 -4 16 C-5 13 -5 13 -4 10 C-3.34 10 -2.68 10 -2 10 C-2 8.02 -2 6.04 -2 4 C-1.34 4 -0.68 4 0 4 C0 2.68 0 1.36 0 0 Z " fill="#53BAE0" transform="translate(377,193)"/>
<path d="M0 0 C0.99 0.33 1.98 0.66 3 1 C3 1.66 3 2.32 3 3 C4.32 3.66 5.64 4.32 7 5 C5.02 5.99 5.02 5.99 3 7 C2.01 4.69 1.02 2.38 0 0 Z M-1 7 C-0.01 7.33 0.98 7.66 2 8 C2 8.99 2 9.98 2 11 C0.68 11 -0.64 11 -2 11 C-1.67 9.68 -1.34 8.36 -1 7 Z " fill="#FAD33A" transform="translate(134,353)"/>
<path d="M0 0 C0.61328125 1.859375 0.61328125 1.859375 1 4 C-0.8125 6.25 -0.8125 6.25 -3 8 C-3.66 8 -4.32 8 -5 8 C-5 8.66 -5 9.32 -5 10 C-6.98 10.99 -6.98 10.99 -9 12 C-7.55575365 8.76138697 -5.74227753 6.38030837 -3.375 3.75 C-2.74335937 3.04359375 -2.11171875 2.3371875 -1.4609375 1.609375 C-0.97882812 1.07828125 -0.49671875 0.5471875 0 0 Z " fill="#F7DC5F" transform="translate(62,212)"/>
<path d="M0 0 C3.33511388 2.9901021 5.21521119 5.89498574 7 10 C7 10.66 7 11.32 7 12 C3.63629679 10.60812281 1.78093669 9.20568604 0 6 C-0.1875 2.75 -0.1875 2.75 0 0 Z " fill="#83C9C2" transform="translate(266,282)"/>
<path d="M0 0 C1.32 0.33 2.64 0.66 4 1 C4 2.65 4 4.3 4 6 C4.99 6.33 5.98 6.66 7 7 C7.33 9.31 7.66 11.62 8 14 C3 7.40909091 3 7.40909091 3 4 C2.34 4 1.68 4 1 4 C0.67 2.68 0.34 1.36 0 0 Z " fill="#5CC0E3" transform="translate(264,252)"/>
<path d="M0 0 C-2.91707899 2.91707899 -6.0522314 3.88789821 -10.171875 4.125 C-12.11503011 4.125 -14.05799913 4.06696555 -16 4 C-11.71327571 -0.28672429 -5.76159905 -0.23516731 0 0 Z " fill="#F4D75E" transform="translate(126,179)"/>
<path d="M0 0 C-0.5625 1.875 -0.5625 1.875 -2 4 C-6.57180875 5.70322287 -11.17019236 6.40859498 -16 7 C-13.46702371 5.31134914 -11.20879805 4.13824363 -8.4375 2.9375 C-1.68679245 0 -1.68679245 0 0 0 Z " fill="#A1D6CF" transform="translate(363,357)"/>
<path d="M0 0 C0.99 0 1.98 0 3 0 C3 0.66 3 1.32 3 2 C3.66 2.33 4.32 2.66 5 3 C5 4.32 5 5.64 5 7 C5.66 7 6.32 7 7 7 C7.33 8.32 7.66 9.64 8 11 C7.01 11 6.02 11 5 11 C4.16151196 9.54462432 3.32936066 8.08559627 2.5 6.625 C1.80390625 5.40683594 1.80390625 5.40683594 1.09375 4.1640625 C0 2 0 2 0 0 Z " fill="#8CCFC6" transform="translate(207,336)"/>
<path d="M0 0 C0.99 0.33 1.98 0.66 3 1 C3 1.99 3 2.98 3 4 C3.66 4 4.32 4 5 4 C5.99 6.97 6.98 9.94 8 13 C7.34 13 6.68 13 6 13 C4.99491199 11.21118264 3.99607264 9.41885304 3 7.625 C2.1646875 6.12839844 2.1646875 6.12839844 1.3125 4.6015625 C0 2 0 2 0 0 Z " fill="#54BEE1" transform="translate(290,296)"/>
<path d="M0 0 C0.66 0.33 1.32 0.66 2 1 C1.06915029 2.77433812 0.13005387 4.54435149 -0.8125 6.3125 C-1.33457031 7.29863281 -1.85664063 8.28476563 -2.39453125 9.30078125 C-3.7719876 11.61665068 -4.99530591 13.23611001 -7 15 C-6.33333333 12.33333333 -5.66666667 9.66666667 -5 7 C-4.34 7 -3.68 7 -3 7 C-2.67 5.68 -2.34 4.36 -2 3 C-1.34 3 -0.68 3 0 3 C0 2.01 0 1.02 0 0 Z " fill="#F5DB6C" transform="translate(250,233)"/>
<path d="M0 0 C0.66 0 1.32 0 2 0 C0.68139111 4.61513112 -1.21355437 8.09897612 -4 12 C-6 9 -6 9 -6 7 C-5.01 7 -4.02 7 -3 7 C-3 6.01 -3 5.02 -3 4 C-2.34 4 -1.68 4 -1 4 C-0.67 2.68 -0.34 1.36 0 0 Z " fill="#57C0E2" transform="translate(368,213)"/>
<path d="M0 0 C6.78982507 0.37035409 11.26884891 2.40476401 17 6 C12.90739982 7.36420006 10.52987341 5.7664515 6.8125 4.0625 C6.15830078 3.77181641 5.50410156 3.48113281 4.83007812 3.18164062 C3.21618656 2.46304657 1.60756345 1.7326412 0 1 C0 0.67 0 0.34 0 0 Z " fill="#F7DB5F" transform="translate(110,432)"/>
<path d="M0 0 C0.33 0 0.66 0 1 0 C1 6.6 1 13.2 1 20 C0.01 20.33 -0.98 20.66 -2 21 C-1.855625 20.13375 -1.71125 19.2675 -1.5625 18.375 C-0.68046473 12.28895665 -0.39975269 6.13237637 0 0 Z " fill="#ACDED8" transform="translate(396,289)"/>
<path d="M0 0 C3.8063457 0.67170806 7.35206816 1.72746564 11 3 C11 3.33 11 3.66 11 4 C7.04 4 3.08 4 -1 4 C-0.67 2.68 -0.34 1.36 0 0 Z " fill="#84C9C3" transform="translate(394,183)"/>
<path d="M0 0 C0.87840996 3.09720845 0.99435406 4.90645403 0 8 C-1.32 8.33 -2.64 8.66 -4 9 C-4.33 10.32 -4.66 11.64 -5 13 C-5.66 13 -6.32 13 -7 13 C-5.35821735 8.22390502 -2.73453298 4.20617096 0 0 Z " fill="#8ED0C8" transform="translate(382,332)"/>
<path d="M0 0 C0.99 0.33 1.98 0.66 3 1 C0.03 5.95 0.03 5.95 -3 11 C-3.66 10.34 -4.32 9.68 -5 9 C-5 8.01 -5 7.02 -5 6 C-4.01 6 -3.02 6 -2 6 C-1.855625 5.195625 -1.71125 4.39125 -1.5625 3.5625 C-1 1 -1 1 0 0 Z " fill="#4CBAE2" transform="translate(318,298)"/>
<path d="M0 0 C0.33 0.66 0.66 1.32 1 2 C-2.56741255 4.48889248 -5.89041233 6.54955729 -10 8 C-10 7.01 -10 6.02 -10 5 C-9.34 5 -8.68 5 -8 5 C-8 4.34 -8 3.68 -8 3 C-5.36 2.01 -2.72 1.02 0 0 Z " fill="#F6DA5F" transform="translate(234,420)"/>
<path d="M0 0 C5.94 2.475 5.94 2.475 12 5 C7.36533108 6.15866723 4.66739961 5.70010994 0 5 C0 3.35 0 1.7 0 0 Z " fill="#91CFC8" transform="translate(316,358)"/>
<path d="M0 0 C0.66 0.33 1.32 0.66 2 1 C-0.31 5.29 -2.62 9.58 -5 14 C-5.33 14 -5.66 14 -6 14 C-6 12.35 -6 10.7 -6 9 C-5.34 9 -4.68 9 -4 9 C-4 7.68 -4 6.36 -4 5 C-3.34 5 -2.68 5 -2 5 C-2 4.01 -2 3.02 -2 2 C-1.34 2 -0.68 2 0 2 C0 1.34 0 0.68 0 0 Z " fill="#4FBCE1" transform="translate(339,263)"/>
<path d="M0 0 C0.33 0 0.66 0 1 0 C0.9131252 1.95917659 0.80495488 3.91741871 0.6875 5.875 C0.62949219 6.96554687 0.57148437 8.05609375 0.51171875 9.1796875 C0.34285156 10.11039062 0.17398438 11.04109375 0 12 C-0.99 12.66 -1.98 13.32 -3 14 C-2.58846263 9.02906176 -2.20399168 4.55491614 0 0 Z " fill="#F6D852" transform="translate(34,256)"/>
<path d="M0 0 C1.65 0 3.3 0 5 0 C5 0.99 5 1.98 5 3 C5.99 3.33 6.98 3.66 8 4 C8 5.65 8 7.3 8 9 C5.06799526 6.14723863 2.35684596 3.34920216 0 0 Z " fill="#8ED1C6" transform="translate(383,265)"/>
<path d="M0 0 C-5.03996638 3.35997759 -9.99709677 4.29282455 -16 4 C-11.51179636 -0.48820364 -5.94325078 -0.20493968 0 0 Z " fill="#40ADD9" transform="translate(238,101)"/>
<path d="M0 0 C2.31 1.98 4.62 3.96 7 6 C6.34 6.66 5.68 7.32 5 8 C2.875 7.625 2.875 7.625 1 7 C0 2.25 0 2.25 0 0 Z " fill="#34B3E3" transform="translate(352,56)"/>
<path d="M0 0 C0.58203125 1.84375 0.58203125 1.84375 1 4 C-0.3125 6.5 -0.3125 6.5 -2 9 C-2.33 9.7425 -2.66 10.485 -3 11.25 C-4 13 -4 13 -7 14 C-5.23570801 9.02790438 -2.6060834 4.56561939 0 0 Z " fill="#9BD5CF" transform="translate(375,216)"/>
<path d="M0 0 C-5.89738492 2.29342747 -10.66606918 3.34548714 -17 3 C-14.08149788 1.05433192 -12.42377152 0.4847543 -9.0625 -0.1875 C-8.20785156 -0.36667969 -7.35320312 -0.54585937 -6.47265625 -0.73046875 C-3.98865141 -1.00123705 -2.35550498 -0.77059444 0 0 Z " fill="#40B1DF" transform="translate(209,30)"/>
<path d="M0 0 C2.40575607 2.18517099 3.79535581 4.25919671 5.1875 7.1875 C5.53167969 7.90292969 5.87585938 8.61835938 6.23046875 9.35546875 C6.48441406 9.89816406 6.73835937 10.44085938 7 11 C6.01 11.33 5.02 11.66 4 12 C4 10.35 4 8.7 4 7 C3.34 7 2.68 7 2 7 C0 4 0 4 0 0 Z " fill="#F2DE6D" transform="translate(236,404)"/>
<path d="M0 0 C5.01009707 1.43145631 7.10619424 3.82951522 10 8 C9.67 8.99 9.34 9.98 9 11 C7.49703315 9.35687553 5.99769719 7.71042916 4.5 6.0625 C3.6646875 5.14597656 2.829375 4.22945313 1.96875 3.28515625 C0 1 0 1 0 0 Z " fill="#F7E06C" transform="translate(70,399)"/>
<path d="M0 0 C-0.66 3.63 -1.32 7.26 -2 11 C-3.49403054 8.01193893 -4.79310745 5.10343799 -6 2 C-2.25 0 -2.25 0 0 0 Z " fill="#7FCEC7" transform="translate(397,273)"/>
<path d="M0 0 C0.33 0 0.66 0 1 0 C1.13794954 7.06608191 0.74805717 13.97360585 0 21 C-0.33 21 -0.66 21 -1 21 C-1.19393875 18.85473901 -1.37998676 16.70876323 -1.5625 14.5625 C-1.71912109 12.77005859 -1.71912109 12.77005859 -1.87890625 10.94140625 C-1.91886719 9.97074219 -1.95882813 9.00007812 -2 8 C-1.67 7.67 -1.34 7.34 -1 7 C-0.63239269 4.67182036 -0.29758419 2.3381615 0 0 Z " fill="#0BA3DA" transform="translate(388,144)"/>
<path d="M0 0 C0.33 1.32 0.66 2.64 1 4 C0.360625 4.433125 -0.27875 4.86625 -0.9375 5.3125 C-3.26746003 6.91239177 -3.26746003 6.91239177 -4 10 C-4.66 10 -5.32 10 -6 10 C-6 10.66 -6 11.32 -6 12 C-6.66 11.67 -7.32 11.34 -8 11 C-5.36 7.37 -2.72 3.74 0 0 Z " fill="#F6E16E" transform="translate(52,224)"/>
<path d="M0 0 C2.4375 0.8125 2.4375 0.8125 5 2 C5.33 2.99 5.66 3.98 6 5 C8.01508358 5.73323796 8.01508358 5.73323796 10 6 C9.34 6.66 8.68 7.32 8 8 C8 7.34 8 6.68 8 6 C6.68 6 5.36 6 4 6 C4 5.34 4 4.68 4 4 C2.68 3.34 1.36 2.68 0 2 C0 1.34 0 0.68 0 0 Z " fill="#92CEC7" transform="translate(423,197)"/>
<path d="M0 0 C0.9659657 2.60810739 1.02770914 3.89420147 0.3125 6.625 C-1.16625774 9.30084735 -2.17750049 9.96508351 -5 11 C-3.55049545 7.2089881 -1.84827434 3.6125362 0 0 Z " fill="#64C3E7" transform="translate(307,162)"/>
<path d="M0 0 C0.99 0.495 0.99 0.495 2 1 C2 1.99 2 2.98 2 4 C2.66 4 3.32 4 4 4 C4.33 5.32 4.66 6.64 5 8 C4.01 8.33 3.02 8.66 2 9 C2 8.34 2 7.68 2 7 C1.34 7 0.68 7 0 7 C0 4.69 0 2.38 0 0 Z " fill="#82CBC3" transform="translate(283,311)"/>
<path d="M0 0 C0.33 0 0.66 0 1 0 C1.99 4.62 2.98 9.24 4 14 C3.01 13.67 2.02 13.34 1 13 C-0.00496852 9.98509443 -0.10335303 7.95818308 -0.0625 4.8125 C-0.05347656 3.91144531 -0.04445312 3.01039063 -0.03515625 2.08203125 C-0.02355469 1.39496094 -0.01195312 0.70789063 0 0 Z " fill="#75C9E2" transform="translate(196,147)"/>
<path d="M0 0 C0.99 0.33 1.98 0.66 3 1 C3.33 3.97 3.66 6.94 4 10 C3.01 10.33 2.02 10.66 1 11 C1.03255208 9.01432292 1.06510417 7.02864583 1.09765625 5.04296875 C1.08263217 2.79694539 1.08263217 2.79694539 0 0 Z " fill="#0DA2DC" transform="translate(379,100)"/>
<path d="M0 0 C1.65 0 3.3 0 5 0 C2.45543849 2.96865509 -0.48994665 4.3619751 -4 6 C-4 4.35 -4 2.7 -4 1 C-2.68 1.33 -1.36 1.66 0 2 C0 1.34 0 0.68 0 0 Z " fill="#57C1E9" transform="translate(217,105)"/>
<path d="M0 0 C0.66 0.33 1.32 0.66 2 1 C-1.17320782 4.53586014 -3.16743695 6.58578031 -8 7 C-5.4837822 4.39391727 -2.94865641 2.10618315 0 0 Z " fill="#F3D750" transform="translate(193,354)"/>
<path d="M0 0 C3.45062857 3.28631293 6.142967 6.2006152 7 11 C6.01 10.34 5.02 9.68 4 9 C4 8.34 4 7.68 4 7 C3.34 7 2.68 7 2 7 C0 4 0 4 0 0 Z " fill="#F5DF73" transform="translate(118,330)"/>
<path d="M0 0 C3.48331435 3.01887244 4.79157144 5.56909529 6 10 C5.34 10 4.68 10 4 10 C1.04696841 6.92884715 0.47348414 4.1666604 0 0 Z " fill="#F6DD6E" transform="translate(230,394)"/>
<path d="M0 0 C0.33 0.66 0.66 1.32 1 2 C1.66 2 2.32 2 3 2 C6 5.46153846 6 5.46153846 6 8 C4.68 8 3.36 8 2 8 C2 6.68 2 5.36 2 4 C1.34 4 0.68 4 0 4 C0 2.68 0 1.36 0 0 Z " fill="#F6DC6B" transform="translate(128,345)"/>
<path d="M0 0 C3.35595828 0.59927826 5.37801226 1.84622436 8 4 C4.79937313 5.60031344 2.27728194 4.03173691 -1 3 C-0.67 2.01 -0.34 1.02 0 0 Z " fill="#4DB8E3" transform="translate(322,36)"/>
<path d="M0 0 C-0.99 3.3 -1.98 6.6 -3 10 C-3.33 10 -3.66 10 -4 10 C-4 7.03 -4 4.06 -4 1 C-2 0 -2 0 0 0 Z " fill="#8FCFC8" transform="translate(463,348)"/>
<path d="M0 0 C0.33 0 0.66 0 1 0 C1 1.98 1 3.96 1 6 C1.66 6.33 2.32 6.66 3 7 C2.34 8.32 1.68 9.64 1 11 C-0.98362069 8.08291076 -0.9876191 6.87619096 -0.625 3.25 C-0.41875 2.1775 -0.2125 1.105 0 0 Z " fill="#5FC1E0" transform="translate(262,241)"/>
<path d="M0 0 C1 3 1 3 -0.25 6.125 C-2 9 -2 9 -5 10 C-3.66511872 6.40608886 -2.03977277 3.24509304 0 0 Z " fill="#8FD3CF" transform="translate(365,234)"/>
<path d="M0 0 C1.32 0 2.64 0 4 0 C3.43628586 3.26954202 2.50037734 4.82575883 0 7 C-0.38133299 5.0085944 -0.71325582 3.00720923 -1 1 C-0.67 0.67 -0.34 0.34 0 0 Z " fill="#41BAE3" transform="translate(357,228)"/>
<path d="M0 0 C1.32 0.33 2.64 0.66 4 1 C3.38245741 2.31602523 2.75571258 3.62773556 2.125 4.9375 C1.77695312 5.66839844 1.42890625 6.39929688 1.0703125 7.15234375 C0 9 0 9 -2 10 C-1.34 6.7 -0.68 3.4 0 0 Z " fill="#F1DB77" transform="translate(280,175)"/>
<path d="M0 0 C0.33 1.32 0.66 2.64 1 4 C-3.455 5.485 -3.455 5.485 -8 7 C-5.42215154 4.35247996 -3.08351902 2.05567935 0 0 Z " fill="#55BEDF" transform="translate(168,45)"/>
<path d="M0 0 C1.32 0.33 2.64 0.66 4 1 C0.535 3.97 0.535 3.97 -3 7 C-3 5.68 -3 4.36 -3 3 C-2.01 3 -1.02 3 0 3 C0 2.01 0 1.02 0 0 Z " fill="#94D2CB" transform="translate(428,400)"/>
<path d="M0 0 C0 3.51716303 -0.82445585 4.37121748 -3 7 C-4.32 6.67 -5.64 6.34 -7 6 C-4.69 4.02 -2.38 2.04 0 0 Z " fill="#8FCEC5" transform="translate(370,350)"/>
<path d="M0 0 C1.875 0.5 1.875 0.5 4 2 C4.98494554 4.65177645 5.45912382 7.20547307 6 10 C3.38275905 7.63202009 1.67138271 5.10399646 0 2 C0 1.34 0 0.68 0 0 Z " fill="#9DDCD3" transform="translate(193,312)"/>
<path d="M0 0 C1.875 0.1875 1.875 0.1875 4 1 C5.3125 3.375 5.3125 3.375 6 6 C5.67 6.99 5.34 7.98 5 9 C4.16396622 7.68921847 3.3312426 6.37632511 2.5 5.0625 C2.0359375 4.33160156 1.571875 3.60070312 1.09375 2.84765625 C0 1 0 1 0 0 Z " fill="#5CC3E7" transform="translate(277,275)"/>
<path d="M0 0 C0.6875 1.6875 0.6875 1.6875 1 4 C-0.4375 6.75 -0.4375 6.75 -2 9 C-3.10102197 5.69693408 -2.95067299 4.28414305 -2 1 C-1.34 0.67 -0.68 0.34 0 0 Z " fill="#3BB4DF" transform="translate(351,241)"/>
<path d="M0 0 C0.33 1.32 0.66 2.64 1 4 C0.34 4 -0.32 4 -1 4 C-1.33 5.65 -1.66 7.3 -2 9 C-2.99 9 -3.98 9 -5 9 C-3.35 6.03 -1.7 3.06 0 0 Z " fill="#67C7E6" transform="translate(290,192)"/>
<path d="M0 0 C2.97 0.495 2.97 0.495 6 1 C6.33 2.65 6.66 4.3 7 6 C1.125 2.25 1.125 2.25 0 0 Z " fill="#F6D747" transform="translate(87,416)"/>
<path d="M0 0 C2.97 0.495 2.97 0.495 6 1 C6.33 2.65 6.66 4.3 7 6 C6.34 6 5.68 6 5 6 C5 5.34 5 4.68 5 4 C4.360625 3.71125 3.72125 3.4225 3.0625 3.125 C1 2 1 2 0 0 Z " fill="#F6DD5D" transform="translate(80,410)"/>
<path d="M0 0 C3.08089673 2.77280706 4.68775452 5.06326356 6 9 C4.125 8.4375 4.125 8.4375 2 7 C0.75 3.375 0.75 3.375 0 0 Z " fill="#8FCFC8" transform="translate(296,334)"/>
<path d="M0 0 C0.66 0 1.32 0 2 0 C0.8141763 3.37503669 -0.27573689 5.64722731 -3 8 C-3 6.02 -3 4.04 -3 2 C-2.01 2 -1.02 2 0 2 C0 1.34 0 0.68 0 0 Z " fill="#52BDE0" transform="translate(310,313)"/>
<path d="M0 0 C0.99 0 1.98 0 3 0 C3.433125 1.423125 3.433125 1.423125 3.875 2.875 C4.76825109 6.05211578 4.76825109 6.05211578 7 8 C6.01 8 5.02 8 4 8 C2.68 5.36 1.36 2.72 0 0 Z " fill="#69C7E4" transform="translate(300,314)"/>
<path d="M0 0 C1.2077558 3.62326739 0.54311128 4.64146369 -1 8 C-1.66 8 -2.32 8 -3 8 C-2.74438677 5.6568787 -2.40729228 3.32156597 -2 1 C-1.34 0.67 -0.68 0.34 0 0 Z " fill="#F3D24A" transform="translate(277,184)"/>
<path d="M0 0 C0.99 0 1.98 0 3 0 C2.67 3.3 2.34 6.6 2 10 C1.67 10 1.34 10 1 10 C0.67 6.7 0.34 3.4 0 0 Z " fill="#54C1E2" transform="translate(310,132)"/>
<path d="M0 0 C3.60654039 2.40436026 3.85452932 3.94679607 5 8 C2.5 6.8125 2.5 6.8125 0 5 C-0.3125 2.3125 -0.3125 2.3125 0 0 Z " fill="#F7DA5E" transform="translate(221,379)"/>
<path d="M0 0 C2.50037734 2.17424117 3.43628586 3.73045798 4 7 C2.68 7 1.36 7 0 7 C0 4.69 0 2.38 0 0 Z " fill="#F9DA54" transform="translate(217,372)"/>
<path d="M0 0 C0.66 0 1.32 0 2 0 C1.50168276 3.68754757 0.89932357 5.60490662 -2 8 C-1.47731534 5.23723823 -0.89130413 2.6739124 0 0 Z " fill="#4EBFE2" transform="translate(325,285)"/>
<path d="M0 0 C0.66 0.99 1.32 1.98 2 3 C1.3125 5.625 1.3125 5.625 0 8 C-0.99 8.33 -1.98 8.66 -3 9 C-2.44271087 5.65626525 -1.64826111 2.96687001 0 0 Z " fill="#8ACBC6" transform="translate(359,244)"/>
<path d="M0 0 C0.66 0.99 1.32 1.98 2 3 C0.71937515 4.7074998 -0.61767557 6.37373596 -2 8 C-2.66 8 -3.32 8 -4 8 C-3.67 6.68 -3.34 5.36 -3 4 C-2.34 4 -1.68 4 -1 4 C-0.67 2.68 -0.34 1.36 0 0 Z " fill="#8BD2CA" transform="translate(386,198)"/>
<path d="M0 0 C0.99 0.33 1.98 0.66 3 1 C1.875 2.5 1.875 2.5 0 4 C-3.1875 4.1875 -3.1875 4.1875 -6 4 C-4 2.66666667 -2 1.33333333 0 0 Z " fill="#0EA2DB" transform="translate(192,33)"/>
<path d="" fill="#FFFFFF" transform="translate(0,0)"/>
<path d="" fill="#FFFFFF" transform="translate(0,0)"/>
<path d="" fill="#FFFFFF" transform="translate(0,0)"/>
<path d="" fill="#FFFFFF" transform="translate(0,0)"/>
<path d="" fill="#FFFFFF" transform="translate(0,0)"/>
<path d="" fill="#FFFFFF" transform="translate(0,0)"/>
<path d="" fill="#FFFFFF" transform="translate(0,0)"/>
<path d="" fill="#FFFFFF" transform="translate(0,0)"/>
<path d="" fill="#FFFFFF" transform="translate(0,0)"/>
<path d="" fill="#FFFFFF" transform="translate(0,0)"/>
<path d="" fill="#FFFFFF" transform="translate(0,0)"/>
<path d="" fill="#FFFFFF" transform="translate(0,0)"/>
<path d="" fill="#FFFFFF" transform="translate(0,0)"/>
<path d="" fill="#FFFFFF" transform="translate(0,0)"/>
<path d="" fill="#FFFFFF" transform="translate(0,0)"/>
<path d="" fill="#FFFFFF" transform="translate(0,0)"/>
<path d="" fill="#FFFFFF" transform="translate(0,0)"/>
<path d="" fill="#FFFFFF" transform="translate(0,0)"/>
<path d="" fill="#FFFFFF" transform="translate(0,0)"/>
<path d="" fill="#FFFFFF" transform="translate(0,0)"/>
<path d="" fill="#FFFFFF" transform="translate(0,0)"/>
<path d="" fill="#FFFFFF" transform="translate(0,0)"/>
<path d="" fill="#FFFFFF" transform="translate(0,0)"/>
<path d="" fill="#FFFFFF" transform="translate(0,0)"/>
<path d="" fill="#FFFFFF" transform="translate(0,0)"/>
<path d="" fill="#FFFFFF" transform="translate(0,0)"/>
<path d="" fill="#FFFFFF" transform="translate(0,0)"/>
<path d="" fill="#FFFFFF" transform="translate(0,0)"/>
<path d="" fill="#FFFFFF" transform="translate(0,0)"/>
<path d="" fill="#FFFFFF" transform="translate(0,0)"/>
<path d="" fill="#FFFFFF" transform="translate(0,0)"/>
<path d="" fill="#FFFFFF" transform="translate(0,0)"/>
<path d="" fill="#FFFFFF" transform="translate(0,0)"/>
<path d="" fill="#FFFFFF" transform="translate(0,0)"/>
<path d="" fill="#FFFFFF" transform="translate(0,0)"/>
<path d="" fill="#FFFFFF" transform="translate(0,0)"/>
<path d="" fill="#FFFFFF" transform="translate(0,0)"/>
<path d="" fill="#FFFFFF" transform="translate(0,0)"/>
<path d="" fill="#FFFFFF" transform="translate(0,0)"/>
<path d="" fill="#FFFFFF" transform="translate(0,0)"/>
<path d="" fill="#FFFFFF" transform="translate(0,0)"/>
<path d="" fill="#FFFFFF" transform="translate(0,0)"/>
<path d="" fill="#FFFFFF" transform="translate(0,0)"/>
<path d="" fill="#FFFFFF" transform="translate(0,0)"/>
</svg>
