<svg viewBox="0 0 512 512" xmlns="http://www.w3.org/2000/svg" fill-rule="evenodd" clip-rule="evenodd" stroke-linejoin="round" stroke-miterlimit="2"><path d="M505.999 256c0 138.108-111.891 249.999-250 249.999-138.108 0-250-111.891-250-250C6 117.891 117.892 6 256 6c138.109 0 250 111.892 250 250" fill-rule="nonzero"/><path d="M260.213 162.367L324.82 322.01l-97.613-77.013 33.006-82.631zM375.147 358.76l-99.485-239.466c-2.34-6.554-8.66-10.767-15.45-10.533-7.022-.234-13.342 3.98-15.917 10.533L134.98 381.935h37.453l43.305-108.38 128.98 104.167c5.15 4.214 8.895 6.086 13.81 6.086 9.832.234 18.025-7.49 18.259-17.322v-.468c0-2.34-.703-4.916-1.639-7.257" fill="#fff" fill-rule="nonzero"/></svg>