<svg viewBox="0 0 512 512" xmlns="http://www.w3.org/2000/svg" fill-rule="evenodd" clip-rule="evenodd" stroke-linejoin="round" stroke-miterlimit="2"><path d="M416.374 361.013l-42.298-27.437-35.287 57.967-41.037-11.798-36.143 54.245 1.861 17.066 196.462-35.603-11.407-120.723-32.151 66.283zM233.15 308.975l31.52-4.263c5.104 2.251 8.646 3.107 14.77 4.638 9.516 2.431 20.549 4.773 36.88-3.317 3.797-1.846 11.707-8.961 14.904-13.029l129.158-23.04 13.164 156.822-221.243 39.22-19.153-157.031zm239.9-56.512l-12.743 2.387L435.811 6.004l-417.3 47.58L69.92 463.89l48.841-6.965c-3.902-5.478-9.966-12.113-20.338-20.593-14.394-11.753-9.306-31.716-.825-44.324 11.227-21.298 69.074-48.376 65.802-82.418-1.17-12.383-3.182-28.503-14.86-39.536-.435 4.578.346 8.991.346 8.991s-4.788-6.019-7.19-14.229c-2.371-3.137-4.232-4.143-6.754-8.345-1.801 4.863-1.561 10.491-1.561 10.491s-3.933-9.11-4.563-16.81c-2.327 3.437-2.912 9.996-2.912 9.996s-5.103-14.38-3.947-22.124c-2.327-6.74-9.216-20.113-7.265-50.508 12.728 8.78 40.766 6.694 51.693-9.14 3.633-5.24 6.11-19.558-1.816-47.762-5.088-18.101-17.681-45.029-22.59-55.25l-.585.42c2.582 8.225 7.925 25.486 9.967 33.862 6.199 25.381 7.865 34.207 4.953 45.914-2.477 10.162-8.406 16.826-23.46 24.271-15.055 7.46-35.033-10.702-36.294-11.707-14.62-11.453-25.937-30.155-27.197-39.22-1.306-9.952 5.823-15.911 9.426-24.046-5.149 1.456-10.897 4.022-10.897 4.022s6.86-6.98 15.31-12.998c3.497-2.282 5.553-3.737 9.23-6.74-5.328-.09-9.666.06-9.666.06s8.901-4.727 18.132-8.18c-6.754-.285-13.224-.045-13.224-.045s19.873-8.735 35.558-15.144c10.777-4.353 21.33-3.062 27.243 5.358 7.775 11.032 15.94 17.021 33.231 20.728 10.627-4.623 13.854-7.01 27.198-10.581 11.753-12.714 20.984-14.35 20.984-14.35s-4.578 4.128-5.81 10.612c6.665-5.163 13.975-9.471 13.975-9.471s-2.837 3.437-5.464 8.886l.616.9c7.76-4.593 16.9-8.21 16.9-8.21s-2.611 3.257-5.673 7.46c5.854-.045 17.741.24 22.364.75 27.228.6 32.887-28.593 43.333-32.256 13.089-4.608 18.928-7.384 41.232 14.155 19.137 18.492 34.087 51.603 26.672 59.018-6.229 6.154-18.507-2.402-32.12-19.093-7.19-8.825-12.624-19.272-15.175-32.54-2.147-11.198-10.507-17.697-10.507-17.697s4.848 10.612 4.848 19.993c0 5.118.66 24.27 9.006 35.017-.826 1.562-1.216 7.76-2.131 8.946-9.712-11.542-30.56-19.798-33.967-22.23 11.512 9.277 37.974 30.59 48.136 51.004 9.62 19.317 3.947 37.029 8.81 41.607 1.381 1.32 20.684 24.96 24.391 36.834 6.47 20.698.375 42.447-8.09 55.94l-23.655 3.633c-3.468-.946-5.794-1.426-8.901-3.197 1.711-2.972 5.103-10.402 5.148-11.933l-1.336-2.311c-7.37 10.266-19.707 20.233-29.959 25.952-13.404 7.474-28.864 6.319-38.935 3.257-28.564-8.66-55.566-27.648-62.08-32.631 0 0-.195 3.977 1.02 4.863 7.205 8 23.716 22.44 39.656 32.526l-33.997 3.677 16.075 123.065c-7.13 1.005-8.24 1.5-16.045 2.596-6.874-23.895-20.023-39.49-34.387-48.571-12.683-8.015-30.17-9.816-46.905-6.56l-1.081 1.231c11.647-1.2 25.381.466 39.49 9.246 13.854 8.616 25.022 30.86 29.12 44.264 5.268 17.111 8.9 35.423-5.254 54.83-10.072 13.81-39.49 21.434-63.251 4.939 6.349 10.026 14.935 18.236 26.477 19.797 17.141 2.282 33.412-.645 44.624-11.947 9.561-9.681 14.634-29.9 13.298-51.198l15.13-2.162 5.464 38.23 250.542-29.674-20.444-196.072zM320.627 148.656c-.706 1.576-1.801 2.597-.15 7.715l.105.285.255.66.69 1.532c2.972 5.988 6.245 11.617 11.693 14.499 1.411-.225 2.882-.39 4.398-.465 5.118-.225 8.36.585 10.402 1.666.195-1.006.225-2.477.12-4.638-.406-7.58 1.53-20.458-13.284-27.243-5.583-2.551-13.419-1.756-16.03 1.426.48.06.9.15 1.23.27 3.948 1.351 1.276 2.687.57 4.293zm41.487 70.666c-1.952-1.051-11.017-.63-17.396.12-12.143 1.396-25.262 5.553-28.144 7.76-5.223 3.962-2.837 10.897 1.021 13.734 10.822 7.955 20.308 13.283 30.32 11.992 6.154-.795 11.572-10.371 15.415-19.062 2.626-5.989 2.626-12.443-1.216-14.544zm-107.545-61.285c3.422-3.197-17.066-7.4-32.976 3.257-11.723 7.865-12.098 24.736-.87 34.297a28.557 28.557 0 002.911 2.162c3.287-1.516 7.025-3.062 11.318-4.428 7.264-2.327 13.298-3.512 18.266-4.158 2.372-2.596 5.134-7.204 4.443-15.52-.93-11.287-9.636-9.501-3.092-15.61z" fill="#632ca6"/></svg>