<svg viewBox="0 0 512 512" xmlns="http://www.w3.org/2000/svg" fill-rule="evenodd" clip-rule="evenodd" stroke-linejoin="round" stroke-miterlimit="2"><path d="M144.498 124.727c-.78-.39-1.171-1.172-1.952-1.562-12.498-12.107-22.262-26.558-28.12-43.351-1.562-4.687-2.734-9.373-2.734-14.45V63.8c.39-6.64 4.687-9.763 10.936-8.201 1.952.39 3.905 1.171 5.467 2.343 7.03 3.515 12.498 8.592 17.575 14.45 8.983 9.764 16.403 21.48 21.48 33.978 0 .39.39.781.39.781s.391.39.782.39c24.214-14.84 51.943-23.823 80.453-25.385-.39-.781-.39-1.562-.39-2.343-2.734-12.107-3.906-24.995-2.734-37.493.39-7.42 1.952-14.84 4.296-22.261 1.171-3.906 3.124-7.03 5.467-10.155.781-1.171 1.953-1.952 3.125-2.733a7.095 7.095 0 017.81 0c2.344 1.562 4.297 3.905 5.859 6.639 2.343 4.687 4.296 9.764 5.077 14.84 2.343 10.936 3.124 22.262 1.953 33.588-.39 6.64-1.562 13.67-3.515 20.309 7.03 1.171 14.06 2.343 21.09 3.905 7.03 1.562 13.669 3.515 20.308 6.249 6.64 2.343 13.279 5.468 19.528 8.592 6.248 3.124 12.107 7.03 18.355 10.545.39-.39.39-.781.781-1.562 6.64-18.356 17.966-34.76 32.807-47.647 3.515-3.125 7.42-5.468 11.716-7.03 1.172-.39 2.343-.781 3.515-.781 6.249-.781 8.983 3.124 9.373 8.201.39 3.515 0 7.03-.781 10.545-2.343 8.983-5.858 17.184-10.545 24.995-6.64 11.326-14.84 21.09-24.995 29.291-.39.39-.781.39-1.172 1.172a204.138 204.138 0 0126.558 31.244c-.781 0-1.172.39-1.562.39h-31.635c-1.172 0-2.343-.78-3.124-1.562-23.043-25.776-53.896-42.18-87.483-47.256-9.764-1.562-19.918-1.953-30.073-1.172-29.681 1.953-58.582 13.279-81.624 32.416-5.859 4.686-11.717 10.154-16.794 16.012-.781 1.172-2.343 1.953-3.905 1.953h-32.416c.781-2.343 6.64-10.935 13.67-18.746 5.858-6.25 11.325-11.717 17.183-17.575zm255.42 230.033c-7.03 10.155-14.841 19.137-23.824 27.73.781.78 1.172 1.17 1.953 1.561 15.231 12.889 26.948 29.682 33.587 48.82a46.606 46.606 0 012.343 14.45c0 1.171-.39 2.343-.78 3.905-1.173 3.515-4.687 5.858-8.202 5.077-2.344-.39-4.687-1.172-6.64-1.953-3.124-1.562-6.248-3.515-8.982-5.858-14.841-12.498-26.167-28.9-32.806-47.256-.391-.391-.391-1.172-.782-1.953a153.825 153.825 0 01-24.604 14.06c-8.592 3.905-17.575 7.42-26.557 9.763-9.374 2.344-18.356 4.296-28.12 5.468.39.781.39 1.562.39 2.343 3.125 12.107 3.906 24.605 3.125 37.102-.39 7.811-1.953 15.232-4.296 22.652-1.172 3.125-2.734 5.859-4.296 8.983-.781 1.172-1.562 1.953-2.343 3.124-3.906 4.296-8.593 4.296-12.498 0-1.562-1.562-2.734-3.515-3.905-5.858-3.125-5.858-4.687-12.107-5.859-18.746-1.562-8.983-1.952-17.966-1.562-26.948.39-6.64 1.172-13.279 2.734-19.528 0-.39.39-1.171.39-1.562 0 0 0-.39-.39-.78-28.51-1.563-55.849-10.155-80.453-25.387l-1.172 2.344c-7.03 16.403-17.184 30.853-30.463 42.179-3.515 3.124-7.42 5.468-11.716 7.03-1.953.781-4.296 1.172-6.249.781-2.343-.39-4.296-1.953-5.468-4.687-1.562-3.515-1.171-7.03-.78-10.544.78-5.078 2.343-9.764 4.295-14.45 5.859-14.451 15.232-27.34 26.167-38.275.39-.39.781-.78 1.562-1.171 0-.39.39-.39.39-.781-10.544-9.373-20.308-19.918-28.119-31.635 1.172 0 1.563-.39 2.344-.39h31.244c1.562 0 2.733.78 3.515 1.562 11.325 12.107 24.604 21.87 39.054 29.291 15.232 8.202 32.025 13.279 49.21 14.84 46.865 4.688 87.092-9.763 120.68-43.35 1.561-1.562 3.514-2.734 5.857-2.343h31.635l.39.39zm-43.351-152.314c2.733 0 5.467.39 8.201 0 3.124-.39 5.077.781 7.42 2.734 12.498 11.716 24.996 23.433 37.884 35.15l1.952 1.952c.782-.781 1.563-1.172 2.344-1.953 12.888-12.107 26.167-24.214 38.664-36.32 1.172-1.172 2.734-1.563 4.296-1.563h9.764v107.01c-1.562.391-24.605.782-27.339 0V255.17l-.39-.39c-8.983 8.201-17.965 16.793-26.948 24.995a829.044 829.044 0 00-27.338-24.995l-.39.39v54.677h-27.34c-.78-1.953-1.171-101.152-.78-107.4zm-250.733 0h26.948c.781 1.953.781 104.667 0 107.01h-26.948c-.39-6.639 0-13.669 0-20.308v-20.309H72.247v40.227c-1.953.781-24.995.781-27.339 0v-106.62h27.339v37.883c1.953.781 30.463.781 33.587 0v-37.883zm59.364 107.01v-106.62c1.562-.39 60.925-.78 64.83-.39v22.652c-.78 0-1.952.39-2.733.39h-34.759v17.575h33.197v23.433h-32.806c-.782 1.953-.782 16.013-.391 19.918.781 0 1.953.39 2.734.39h34.759v22.653h-64.831zm96.075 0c-.391-2.733-.391-105.057 0-107.01h26.947v78.891c1.172 0 1.953 0 3.125.39h34.759v28.12l-64.831-.39z" fill="#0f1689" fill-rule="nonzero"/></svg>