<?xml version="1.0" encoding="UTF-8"?>
<svg version="1.1" xmlns="http://www.w3.org/2000/svg" width="400" height="400">
<path d="M0 0 C0.99 0.495 0.99 0.495 2 1 C1.97477768 1.81621323 1.94955536 2.63242645 1.92356873 3.47337341 C-1.1532403 55.13768988 -1.1532403 55.13768988 17.68115234 101.61523438 C21.41078789 106.88574585 24.14200971 112.71325435 26.99728394 118.48657227 C28.51064208 121.52615817 30.08134313 124.53463423 31.6484375 127.546875 C32.22303711 128.65482422 32.79763672 129.76277344 33.38964844 130.90429688 C35.98193465 135.88764878 38.59994761 140.85724483 41.22436523 145.82373047 C44.85230559 152.69717234 48.42691478 159.5979149 52 166.5 C56.01880017 174.26218532 60.04652431 182.01898384 64.125 189.75 C80.75676959 221.28400019 80.75676959 221.28400019 88 236 C86 238 86 238 83.46438599 238.24723816 C81.85610428 238.24510063 81.85610428 238.24510063 80.21533203 238.24291992 C78.9987088 238.24599655 77.78208557 238.24907318 76.52859497 238.25224304 C75.18833232 238.2453312 73.84807146 238.23806322 72.5078125 238.23046875 C71.12368818 238.22927472 69.73956304 238.22882426 68.35543823 238.2290802 C65.43824251 238.22751182 62.52116885 238.21921212 59.60400391 238.20581055 C55.92686614 238.18910447 52.24986601 238.1849881 48.57269478 238.18575573 C45.70155602 238.18547844 42.83044541 238.17990564 39.95931625 238.17275429 C37.96369516 238.16815515 35.96806828 238.16631753 33.97244263 238.16459656 C23.26537121 238.11095154 12.72929724 237.53646486 2 237 C2 275.94 2 314.88 2 355 C-3.63134941 352.74746024 -3.63134941 352.74746024 -6.33203125 350.03125 C-7.18764648 349.17466797 -7.18764648 349.17466797 -8.06054688 348.30078125 C-8.63869141 347.70652344 -9.21683594 347.11226563 -9.8125 346.5 C-10.40998047 345.90574219 -11.00746094 345.31148438 -11.62304688 344.69921875 C-16 340.26724107 -16 340.26724107 -16 338 C-16.66 338 -17.32 338 -18 338 C-19.35386936 336.34997172 -20.68678142 334.6825613 -22 333 C-22.66 332.67 -23.32 332.34 -24 332 C-24 331.34 -24 330.68 -24 330 C-24.66 330 -25.32 330 -26 330 C-26 329.34 -26 328.68 -26 328 C-27.32 327.34 -28.64 326.68 -30 326 C-30 325.34 -30 324.68 -30 324 C-30.804375 323.690625 -30.804375 323.690625 -31.625 323.375 C-34.91978009 321.46749574 -37.59363628 318.95180616 -40 316 C-40 315.34 -40 314.68 -40 314 C-40.66 314 -41.32 314 -42 314 C-43.43088436 312.55022717 -43.43088436 312.55022717 -45.09934998 310.53373718 C-48.99709864 305.95392812 -53.15386579 301.70526469 -57.41040039 297.46020508 C-58.22108475 296.6477684 -59.0317691 295.83533173 -59.86701965 294.99827576 C-62.52473661 292.33618787 -65.18605869 289.67773882 -67.84765625 287.01953125 C-69.70672466 285.15978856 -71.56564466 283.29989751 -73.42442322 281.43986511 C-77.31020718 277.55226894 -81.19807878 273.66676995 -85.0871582 269.7824707 C-89.57146311 265.30361426 -94.05214414 260.82115666 -98.5309754 256.3368271 C-102.8583785 252.00432625 -107.18860335 247.67465716 -111.52001762 243.34616661 C-113.35513093 241.51171913 -115.18950514 239.67653198 -117.02311897 237.84058571 C-119.58599569 235.27516369 -122.15206613 232.71297883 -124.71899414 230.15161133 C-125.47188721 229.39669403 -126.22478027 228.64177673 -127.00048828 227.86398315 C-130.07594282 224.80083105 -133.12922505 221.83218172 -136.51756287 219.11552429 C-137.33676712 218.41740128 -138.15597137 217.71927826 -139 217 C-139 216.34 -139 215.68 -139 215 C-139.66 215 -140.32 215 -141 215 C-142.26953125 213.70703125 -142.26953125 213.70703125 -143.8125 211.8125 C-147.28141822 207.72753711 -150.96467642 203.91347583 -154.75 200.125 C-155.6004187 199.26805542 -155.6004187 199.26805542 -156.46801758 198.39379883 C-158.88122215 195.98849111 -161.15651271 193.8956582 -164 192 C-164 191.34 -164 190.68 -164 190 C-164.598125 189.731875 -165.19625 189.46375 -165.8125 189.1875 C-167.99847854 188.00082594 -169.41332594 186.90400887 -171 185 C-171 184.34 -171 183.68 -171 183 C-171.66 183 -172.32 183 -173 183 C-173 182.34 -173 181.68 -173 181 C-173.66 181 -174.32 181 -175 181 C-175.8125 178.875 -175.8125 178.875 -176 176 C-174.58633421 173.58545884 -173.01224447 172.01224447 -171 170 C-170.34 170 -169.68 170 -169 170 C-169 169.34 -169 168.68 -169 168 C-168.34 168 -167.68 168 -167 168 C-167 167.34 -167 166.68 -167 166 C-162.69767442 161.23255814 -162.69767442 161.23255814 -159 160 C-159 159.34 -159 158.68 -159 158 C-158.34 158 -157.68 158 -157 158 C-157 157.34 -157 156.68 -157 156 C-156.34 156 -155.68 156 -155 156 C-155 155.34 -155 154.68 -155 154 C-153.63624668 152.65513515 -153.63624668 152.65513515 -151.68666077 151.05357361 C-146.18068352 146.36623516 -141.11680097 141.25704002 -136.01342773 136.14282227 C-134.93022918 135.06098146 -133.84681861 133.9793529 -132.76321411 132.8979187 C-129.8415584 129.98079293 -126.92303997 127.0605477 -124.0052402 124.13956571 C-120.93908471 121.07086356 -117.87047312 118.00461896 -114.80226135 114.93797302 C-109.65193842 109.78946507 -104.50371756 104.63886223 -99.35668945 99.48706055 C-93.42142272 93.54635249 -87.48256234 87.60925524 -81.54182285 81.67402035 C-76.42467119 76.56141894 -71.30948619 71.44685601 -66.1959148 66.33067364 C-63.1490859 63.28229247 -60.10160151 60.23457483 -57.05233574 57.18863106 C-54.18460643 54.32380832 -51.31936857 51.45651609 -48.45596695 48.58736801 C-47.40999264 47.54008097 -46.36318418 46.49362621 -45.31544304 45.44810677 C-40.19144545 40.33396666 -35.14786902 35.19760961 -30.46655369 29.6689291 C-28.03050565 26.89672138 -25.31004036 24.45716011 -22.5625 22 C-21.42722897 20.96871954 -20.29311267 19.93616648 -19.16015625 18.90234375 C-18.61891113 18.40847168 -18.07766602 17.91459961 -17.52001953 17.40576172 C-14.24271302 14.37480591 -11.12219375 11.18893899 -8 8 C-5.33333333 5.33333333 -2.66666667 2.66666667 0 0 Z M-1 78 C-1.4964502 78.96317139 -1.4964502 78.96317139 -2.00292969 79.94580078 C-7.85004048 91.2758355 -13.72155192 102.58282579 -19.875 113.75 C-26.27355907 125.37565666 -32.33220424 137.17182773 -38.40400696 148.96984863 C-40.92804699 153.87026927 -43.48592757 158.75204596 -46.0625 163.625 C-52.11850037 175.08963084 -58.07027724 186.60831659 -64.0289917 198.12371826 C-65.03878803 200.07495021 -66.04889539 202.02602088 -67.05908203 203.97705078 C-68.78880806 207.31779394 -70.51817768 210.65872132 -72.2472229 213.99981689 C-72.91104058 215.28252299 -73.57491909 216.5651976 -74.23886108 217.84783936 C-75.1647391 219.63669073 -76.09019097 221.42576265 -77.015625 223.21484375 C-77.54446289 224.23698975 -78.07330078 225.25913574 -78.61816406 226.31225586 C-79.30217285 227.64268921 -79.30217285 227.64268921 -80 229 C-80.39155273 229.71744385 -80.78310547 230.4348877 -81.18652344 231.17407227 C-82.20347711 233.12356782 -82.20347711 233.12356782 -82 236 C-74.13126626 236.13234776 -66.26250399 236.26284347 -58.39370346 236.39115143 C-54.73755164 236.45082275 -51.08141138 236.51106695 -47.42529297 236.57275391 C-43.8785554 236.63257204 -40.33179351 236.69071133 -36.78501129 236.74781799 C-34.81374823 236.77995596 -32.84251173 236.81371115 -30.87127686 236.84753418 C-20.24331122 237.01643433 -9.6338983 237 1 237 C1 184.53 1 132.06 1 78 C0.34 78 -0.32 78 -1 78 Z " fill="#01C0E9" transform="translate(221,25)"/>
<path d="M0 0 C0.66 0 1.32 0 2 0 C2 0.99 2 1.98 2 3 C1.34 3 0.68 3 0 3 C-0.40798828 3.88365234 -0.40798828 3.88365234 -0.82421875 4.78515625 C-3.67437853 10.15406189 -8.5038052 14.98988031 -13 19 C-13.99 19 -14.98 19 -16 19 C-15.5236925 23.28676746 -13.01914242 25.11809132 -10 28 C-5 33.48780488 -5 33.48780488 -5 36 C-3.68 36 -2.36 36 -1 36 C-1 36.66 -1 37.32 -1 38 C-0.2575 37.87625 0.485 37.7525 1.25 37.625 C4 38 4 38 6.3125 40.8125 C8 44 8 44 8 47 C8.99 47 9.98 47 11 47 C11.33 48.32 11.66 49.64 12 51 C12.66 51 13.32 51 14 51 C14 51.99 14 52.98 14 54 C16.64 53.67 19.28 53.34 22 53 C22.09796875 53.69867188 22.1959375 54.39734375 22.296875 55.1171875 C22.44640625 56.02726562 22.5959375 56.93734375 22.75 57.875 C22.88921875 58.77992188 23.0284375 59.68484375 23.171875 60.6171875 C23.76617278 63.15550917 23.76617278 63.15550917 26.01953125 64.19140625 C26.67308594 64.45824219 27.32664063 64.72507812 28 65 C28.309375 65.680625 28.61875 66.36125 28.9375 67.0625 C29.288125 67.701875 29.63875 68.34125 30 69 C32.48400985 69.66347631 32.48400985 69.66347631 35 70 C37 72 37 72 37 76 C38.32 76 39.64 76 41 76 C41.33 76.99 41.66 77.98 42 79 C42.99 79.33 43.98 79.66 45 80 C45 81.32 45 82.64 45 84 C45.99 84 46.98 84 48 84 C48.103125 84.639375 48.20625 85.27875 48.3125 85.9375 C48.539375 86.618125 48.76625 87.29875 49 88 C50.485 88.495 50.485 88.495 52 89 C52.6875 91.0625 52.6875 91.0625 53 93 C53.763125 93.103125 54.52625 93.20625 55.3125 93.3125 C58.19807812 94.05067115 59.26179817 94.62140803 61 97 C61 97.99 61 98.98 61 100 C63.31 100.33 65.62 100.66 68 101 C68.33 102.65 68.66 104.3 69 106 C69.66 106 70.32 106 71 106 C71.33 107.65 71.66 109.3 72 111 C72.61875 111.061875 73.2375 111.12375 73.875 111.1875 C74.57625 111.455625 75.2775 111.72375 76 112 C76.66666667 113.66666667 77.33333333 115.33333333 78 117 C79.32303717 117.3721042 80.65737935 117.70630173 82 118 C82.6837045 119.32467746 83.34964186 120.65863633 84 122 C86.0335948 123.26804566 86.0335948 123.26804566 88 124 C88 125.32 88 126.64 88 128 C88.5775 128.0825 89.155 128.165 89.75 128.25 C92 129 92 129 93.9375 131 C95.83608844 133.23114527 95.83608844 133.23114527 98.5625 133.375 C101 134 101 134 102.8125 136.875 C104 140 104 140 104 143 C105.32 143 106.64 143 108 143 C108 144.32 108 145.64 108 147 C108.66 147 109.32 147 110 147 C110 147.66 110 148.32 110 149 C110.7425 148.87625 111.485 148.7525 112.25 148.625 C115 149 115 149 117.3125 151.875 C119 155 119 155 119 157 C119.66 157 120.32 157 121 157 C121 157.66 121 158.32 121 159 C121.99 159 122.98 159 124 159 C124.4125 159.86625 124.825 160.7325 125.25 161.625 C126.97832149 164.95819144 128.87076408 167.91627901 131 171 C130.01 171 129.02 171 128 171 C127.67 170.01 127.34 169.02 127 168 C126.443125 167.731875 125.88625 167.46375 125.3125 167.1875 C121.96235837 165.467157 119.37574493 162.91424712 117 160 C117 159.34 117 158.68 117 158 C116.34 158 115.68 158 115 158 C113.56911564 156.55022717 113.56911564 156.55022717 111.90065002 154.53373718 C108.00290136 149.95392812 103.84613421 145.70526469 99.58959961 141.46020508 C98.77891525 140.6477684 97.9682309 139.83533173 97.13298035 138.99827576 C94.47526339 136.33618787 91.81394131 133.67773882 89.15234375 131.01953125 C87.29327534 129.15978856 85.43435534 127.29989751 83.57557678 125.43986511 C79.68979282 121.55226894 75.80192122 117.66676995 71.9128418 113.7824707 C67.42853689 109.30361426 62.94785586 104.82115666 58.4690246 100.3368271 C54.1416215 96.00432625 49.81139665 91.67465716 45.47998238 87.34616661 C43.64486907 85.51171913 41.81049486 83.67653198 39.97688103 81.84058571 C37.41400431 79.27516369 34.84793387 76.71297883 32.28100586 74.15161133 C31.52811279 73.39669403 30.77521973 72.64177673 29.99951172 71.86398315 C26.92405718 68.80083105 23.87077495 65.83218172 20.48243713 63.11552429 C19.66323288 62.41740128 18.84402863 61.71927826 18 61 C18 60.34 18 59.68 18 59 C17.34 59 16.68 59 16 59 C14.73046875 57.70703125 14.73046875 57.70703125 13.1875 55.8125 C9.71858178 51.72753711 6.03532358 47.91347583 2.25 44.125 C1.6830542 43.55370361 1.1161084 42.98240723 0.53198242 42.39379883 C-1.88122215 39.98849111 -4.15651271 37.8956582 -7 36 C-7 35.34 -7 34.68 -7 34 C-7.598125 33.731875 -8.19625 33.46375 -8.8125 33.1875 C-10.99847854 32.00082594 -12.41332594 30.90400887 -14 29 C-14 28.34 -14 27.68 -14 27 C-14.66 27 -15.32 27 -16 27 C-16 26.34 -16 25.68 -16 25 C-16.66 25 -17.32 25 -18 25 C-18.8125 22.875 -18.8125 22.875 -19 20 C-17.58633421 17.58545884 -16.01224447 16.01224447 -14 14 C-13.34 14 -12.68 14 -12 14 C-12 13.34 -12 12.68 -12 12 C-11.34 12 -10.68 12 -10 12 C-10 11.34 -10 10.68 -10 10 C-5.69767442 5.23255814 -5.69767442 5.23255814 -2 4 C-2 3.34 -2 2.68 -2 2 C-1.34 2 -0.68 2 0 2 C0 1.34 0 0.68 0 0 Z " fill="#35BFDC" transform="translate(64,181)"/>
<path d="M0 0 C0.99 0.495 0.99 0.495 2 1 C2.0154612 2.32091644 2.0154612 2.32091644 2.03123474 3.66851807 C2.12921035 11.96724306 2.23172498 20.26589689 2.33933926 28.56450272 C2.39450468 32.83089902 2.44791443 37.09730226 2.49731445 41.36376953 C2.54505218 45.48109593 2.5973983 49.59834029 2.65294075 53.71556854 C2.6733217 55.28641467 2.69204175 56.85728325 2.70907402 58.42816925 C2.73321252 60.62830212 2.76325385 62.82828111 2.79467773 65.02832031 C2.81799416 66.9069577 2.81799416 66.9069577 2.84178162 68.82354736 C2.97065355 71.41082945 3.23470905 73.54268904 4 76 C3.67 76 3.34 76 3 76 C2.67 128.8 2.34 181.6 2 236 C29.06 236 56.12 236 84 236 C84 233.69 84 231.38 84 229 C85.89213369 231.38573379 87.02391783 233.07175348 88 236 C86 238 86 238 83.46438599 238.24723816 C81.85610428 238.24510063 81.85610428 238.24510063 80.21533203 238.24291992 C78.9987088 238.24599655 77.78208557 238.24907318 76.52859497 238.25224304 C75.18833232 238.2453312 73.84807146 238.23806322 72.5078125 238.23046875 C71.12368818 238.22927472 69.73956304 238.22882426 68.35543823 238.2290802 C65.43824251 238.22751182 62.52116885 238.21921212 59.60400391 238.20581055 C55.92686614 238.18910447 52.24986601 238.1849881 48.57269478 238.18575573 C45.70155602 238.18547844 42.83044541 238.17990564 39.95931625 238.17275429 C37.96369516 238.16815515 35.96806828 238.16631753 33.97244263 238.16459656 C23.26537121 238.11095154 12.72929724 237.53646486 2 237 C2 275.94 2 314.88 2 355 C-3.625 352.75 -3.625 352.75 -6.33203125 349.9609375 C-6.90244141 349.38085938 -7.47285156 348.80078125 -8.06054688 348.203125 C-8.92776367 347.29820312 -8.92776367 347.29820312 -9.8125 346.375 C-10.40998047 345.76398438 -11.00746094 345.15296875 -11.62304688 344.5234375 C-13.08895106 343.02235161 -14.54542993 341.51207138 -16 340 C-14.68 339.67 -13.36 339.34 -12 339 C-11.46375 339.86625 -10.9275 340.7325 -10.375 341.625 C-7.44574936 346.01366376 -4.11251729 350.29582757 1 352 C1 314.38 1 276.76 1 238 C-26.22535164 238.03960536 -26.22535164 238.03960536 -53.45068359 238.09008789 C-58.71020508 238.09460449 -58.71020508 238.09460449 -61.17056274 238.09544373 C-62.89297748 238.09698169 -64.61539112 238.10050362 -66.33779907 238.10557556 C-68.94315468 238.11286555 -71.54844436 238.11390699 -74.15380859 238.11352539 C-74.92418646 238.1171235 -75.69456432 238.12072161 -76.48828697 238.12442875 C-81.77194733 238.11402634 -81.77194733 238.11402634 -84 237 C-83.625 234.5625 -83.625 234.5625 -83 232 C-82.34 231.67 -81.68 231.34 -81 231 C-81.33 232.65 -81.66 234.3 -82 236 C-80.88271515 235.99666908 -80.88271515 235.99666908 -79.74285889 235.99327087 C-72.62647725 235.97299966 -65.51010609 235.9578919 -58.39370346 235.94818783 C-54.73755382 235.94303076 -51.08142857 235.93606859 -47.42529297 235.92456055 C-43.87853008 235.91347022 -40.33179022 235.90766963 -36.78501129 235.90512276 C-34.81375873 235.90245133 -32.84251507 235.89468431 -30.87127686 235.88670349 C-20.18783584 235.88606297 -9.71507785 236.46424611 1 237 C1 184.53 1 132.06 1 78 C0.34 78 -0.32 78 -1 78 C-1.268125 78.7425 -1.53625 79.485 -1.8125 80.25 C-2.94229421 82.86636554 -4.20893202 84.80187111 -6 87 C-6.20016822 83.39697197 -5.99767079 81.04907647 -4 78 C-3.01 77.34 -2.02 76.68 -1 76 C0.13603185 72.59190446 0.15948953 69.92003549 0.20532227 66.32543945 C0.21522186 65.652005 0.22512146 64.97857056 0.23532104 64.284729 C0.26688389 62.06094873 0.29167275 59.8371471 0.31640625 57.61328125 C0.33698029 56.07056628 0.35797688 54.5278569 0.37937927 52.9851532 C0.4345535 48.92622398 0.48398325 44.86724427 0.53222656 40.80822754 C0.58247554 36.66572582 0.63814387 32.52329734 0.69335938 28.38085938 C0.80088409 20.25396819 0.90234166 12.1270157 1 4 C-0.32 3.67 -1.64 3.34 -3 3 C-2.01 2.01 -1.02 1.02 0 0 Z " fill="#75DBEA" transform="translate(221,25)"/>
<path d="M0 0 C4.05495117 1.35165039 4.35688411 3.03468924 6.28515625 6.79296875 C6.58691269 7.37661697 6.88866913 7.9602652 7.1995697 8.56159973 C7.83696822 9.79919516 8.46962867 11.03924056 9.09790039 12.28149414 C10.05261588 14.16796941 11.02194055 16.04631455 11.99414062 17.92382812 C14.70026747 23.19822211 17.24256084 28.31731058 19 34 C16.00667261 33.0022242 15.05233685 32.2477975 13 30 C12.67 30.99 12.34 31.98 12 33 C10.54815522 28.46298506 9.76490804 24.81938524 10 20 C9.34 20 8.68 20 8 20 C7.7525 19.360625 7.505 18.72125 7.25 18.0625 C6.03378366 15.50980961 6.03378366 15.50980961 2 15 C2 62.19 2 109.38 2 158 C4.31 158 6.62 158 9 158 C9.66 158.33 10.32 158.66 11 159 C12.48100811 159.08963847 13.96599424 159.11757925 15.44970703 159.11352539 C16.37051056 159.11344986 17.29131409 159.11337433 18.24002075 159.11329651 C19.23589203 159.10813522 20.23176331 159.10297394 21.2578125 159.09765625 C22.27600067 159.0962413 23.29418884 159.09482635 24.3432312 159.09336853 C27.60385035 159.087759 30.86440151 159.07520488 34.125 159.0625 C36.33203026 159.05748623 38.53906159 159.05292311 40.74609375 159.04882812 C46.16408581 159.03778648 51.58203805 159.02103905 57 159 C57 158.67 57 158.34 57 158 C64.59 158 72.18 158 80 158 C79.67 157.34 79.34 156.68 79 156 C77.68 156 76.36 156 75 156 C75 155.01 75 154.02 75 153 C75.66 153 76.32 153 77 153 C76.39816251 150.97954558 75.72693904 148.97888961 75 147 C74.34 146.67 73.68 146.34 73 146 C72.33203125 144.07421875 72.33203125 144.07421875 71.8125 141.6875 C71.63332031 140.90761719 71.45414062 140.12773437 71.26953125 139.32421875 C70.98932557 136.90795241 71.25867863 135.29757048 72 133 C73.29231226 135.41632339 74.58387191 137.83304396 75.875 140.25 C76.42220703 141.27287109 76.42220703 141.27287109 76.98046875 142.31640625 C77.33496094 142.98027344 77.68945312 143.64414063 78.0546875 144.328125 C78.37937012 144.9355957 78.70405273 145.54306641 79.03857422 146.16894531 C82.2435015 152.27279361 82 152.95590478 82 161 C54.94 161 27.88 161 0 161 C0 107.87 0 54.74 0 0 Z " fill="#13BADD" transform="translate(223,100)"/>
<path d="M0 0 C0.99 0.33 1.98 0.66 3 1 C2.34 2.65 1.68 4.3 1 6 C29.05 6.33 57.1 6.66 86 7 C86 44.62 86 82.24 86 121 C81.7931512 119.9482878 80.75455843 119.16267729 77.8125 116.1875 C77.11769531 115.50042969 76.42289062 114.81335938 75.70703125 114.10546875 C73.98948387 111.98702931 73.40089227 110.66264268 73 108 C71.63875 107.9071875 71.63875 107.9071875 70.25 107.8125 C66.23118116 106.80779529 65.3236806 105.31954371 63 102 C62.01 101.505 62.01 101.505 61 101 C61 100.34 61 99.68 61 99 C60.34 99 59.68 99 59 99 C59.66 97.68 60.32 96.36 61 95 C61.43570313 95.61488281 61.87140625 96.22976563 62.3203125 96.86328125 C65.87801432 101.69159086 68.452398 104.49037052 74 107 C74.875 109.1875 74.875 109.1875 75 111 C75.66 111 76.32 111 77 111 C78.68732277 112.98260426 80.35366057 114.9832342 82 117 C82.66 117.33 83.32 117.66 84 118 C83.67 81.7 83.34 45.4 83 8 C64.57393601 8.32695179 64.57393601 8.32695179 46.14794922 8.65820312 C39.96742464 8.76835409 33.78675455 8.860823 27.60583496 8.94580078 C24.15909251 8.99760868 20.71300916 9.06651202 17.26660156 9.13671875 C15.26368564 9.1650525 13.26075629 9.19245985 11.2578125 9.21875 C9.89993118 9.25361511 9.89993118 9.25361511 8.51461792 9.28918457 C7.69140045 9.29623413 6.86818298 9.30328369 6.02001953 9.31054688 C5.31056183 9.32307495 4.60110413 9.33560303 3.87014771 9.34851074 C1.39853634 8.88791444 0.51502598 7.97069296 -1 6 C-1.25 3.375 -1.25 3.375 -1 1 C-0.67 0.67 -0.34 0.34 0 0 Z " fill="#17B7D8" transform="translate(136,256)"/>
<path d="M0 0 C4.05495117 1.35165039 4.35688411 3.03468924 6.28515625 6.79296875 C6.58691269 7.37661697 6.88866913 7.9602652 7.1995697 8.56159973 C7.83696822 9.79919516 8.46962867 11.03924056 9.09790039 12.28149414 C10.05261588 14.16796941 11.02194055 16.04631455 11.99414062 17.92382812 C14.70026747 23.19822211 17.24256084 28.31731058 19 34 C16.00667261 33.0022242 15.05233685 32.2477975 13 30 C12.67 30.99 12.34 31.98 12 33 C10.54815522 28.46298506 9.76490804 24.81938524 10 20 C9.34 20 8.68 20 8 20 C7.49384702 18.73160474 6.99530901 17.46016898 6.5 16.1875 C6.2215625 15.47980469 5.943125 14.77210937 5.65625 14.04296875 C5 12 5 12 5 9 C4.34 9 3.68 9 3 9 C2.67 8.34 2.34 7.68 2 7 C2 57.82 2 108.64 2 161 C1.34 161 0.68 161 0 161 C0 107.87 0 54.74 0 0 Z " fill="#2CB3D0" transform="translate(223,100)"/>
<path d="M0 0 C0.66 1.32 1.32 2.64 2 4 C0.50260417 5.20442708 -0.99479167 6.40885417 -2.4921875 7.61328125 C-4.25292107 9.12270545 -4.25292107 9.12270545 -6 12 C-6.99 12 -7.98 12 -9 12 C-9.0928125 12.804375 -9.0928125 12.804375 -9.1875 13.625 C-10.85089216 18.48722325 -13.81745539 21.38598645 -18.25 23.6875 C-19.1575 24.120625 -20.065 24.55375 -21 25 C-21.33 25.99 -21.66 26.98 -22 28 C-23.36125 28.5878125 -23.36125 28.5878125 -24.75 29.1875 C-28.59961237 31.33439921 -29.72557399 33.34976323 -31.7265625 37.16015625 C-33.2388421 39.34507554 -34.6209163 39.90677733 -37 41 C-38.26804566 43.0335948 -38.26804566 43.0335948 -39 45 C-39.66 45 -40.32 45 -41 45 C-41.226875 45.598125 -41.45375 46.19625 -41.6875 46.8125 C-43.37304841 49.62174735 -45.05002192 50.63293699 -48 52 C-48.99 51.67 -49.98 51.34 -51 51 C-50.12786865 50.13310547 -49.2557373 49.26621094 -48.35717773 48.37304688 C-45.09122598 45.12533208 -41.82869701 41.87419673 -38.56713867 38.62207031 C-37.16082925 37.22075867 -35.75361978 35.82034964 -34.34545898 34.42089844 C-32.30990344 32.39760962 -30.27771469 30.37098872 -28.24609375 28.34375 C-27.62600937 27.7288269 -27.00592499 27.11390381 -26.36705017 26.48034668 C-22.61412668 22.72789555 -19.06314146 18.85803857 -15.61753845 14.82102966 C-12.98283793 11.85487587 -10.0719536 9.21271174 -7.125 6.5625 C-5.98175787 5.52214966 -4.83852804 4.48178581 -3.6953125 3.44140625 C-2.80585938 2.63574219 -1.91640625 1.83007812 -1 1 C-0.67 0.67 -0.34 0.34 0 0 Z " fill="#30C1DC" transform="translate(206,40)"/>
<path d="M0 0 C0.66 0.99 1.32 1.98 2 3 C0.93014162 7.60168002 -1.22038591 11.34176282 -3.625 15.375 C-6.44266902 20.19193587 -9.10031281 25.05249009 -11.5625 30.0625 C-15.38239772 37.82102331 -19.33520832 45.50879815 -23.3125 53.1875 C-23.63510803 53.8105603 -23.95771606 54.43362061 -24.2901001 55.07556152 C-30.15696154 66.40277559 -36.06269631 77.70954366 -42 89 C-42.33 89 -42.66 89 -43 89 C-43.22036864 85.14354879 -42.60355101 82.50776784 -41 79 C-40.34 79 -39.68 79 -39 79 C-38.67 77.35 -38.34 75.7 -38 74 C-37.34 74 -36.68 74 -36 74 C-36 73.01 -36 72.02 -36 71 C-35.34 71 -34.68 71 -34 71 C-34 69.68 -34 68.36 -34 67 C-33.34 67 -32.68 67 -32 67 C-31.896875 65.741875 -31.79375 64.48375 -31.6875 63.1875 C-31.25858135 59.69487669 -30.73337662 58.29603636 -28 56 C-26.80972016 53.40084462 -26.80972016 53.40084462 -26 51 C-25.34 51 -24.68 51 -24 51 C-23.896875 50.29875 -23.79375 49.5975 -23.6875 48.875 C-22.90640997 45.60862353 -21.57941257 42.9528148 -20 40 C-19.34 40 -18.68 40 -18 40 C-18 38.35 -18 36.7 -18 35 C-17.34 35 -16.68 35 -16 35 C-15.67 32.36 -15.34 29.72 -15 27 C-14.34 27 -13.68 27 -13 27 C-12.731875 25.865625 -12.46375 24.73125 -12.1875 23.5625 C-11.795625 22.386875 -11.40375 21.21125 -11 20 C-10.01 19.67 -9.02 19.34 -8 19 C-7.67 17.35 -7.34 15.7 -7 14 C-6.34 14 -5.68 14 -5 14 C-4.67 12.02 -4.34 10.04 -4 8 C-3.34 8 -2.68 8 -2 8 C-1.34 5.36 -0.68 2.72 0 0 Z " fill="#45C5DB" transform="translate(188,157)"/>
<path d="M0 0 C0.495 1.98 0.495 1.98 1 4 C-1.1875 6.4375 -1.1875 6.4375 -4 9 C-5.051875 10.3921875 -5.051875 10.3921875 -6.125 11.8125 C-6.74375 12.534375 -7.3625 13.25625 -8 14 C-8.99 14 -9.98 14 -11 14 C-11.0825 14.556875 -11.165 15.11375 -11.25 15.6875 C-12.75502764 20.32800189 -15.86369221 22.97701029 -19.75 25.6875 C-23.19806082 28.14856943 -25.56630242 30.81511698 -28.125 34.1875 C-31.08735365 38.08287842 -33.3912694 40.13456142 -38 42 C-38.66 42.99 -39.32 43.98 -40 45 C-42.5 46.75 -42.5 46.75 -45 48 C-45.66 47.67 -46.32 47.34 -47 47 C-31.49 31.49 -15.98 15.98 0 0 Z " fill="#33C3DE" transform="translate(143,103)"/>
<path d="M0 0 C0.04634244 8.92738241 0.08187889 17.8547234 0.10362434 26.78219986 C0.11406111 30.92759704 0.12821835 35.07291191 0.15087891 39.21826172 C0.17261111 43.21882689 0.18456943 47.21931291 0.18975449 51.21993256 C0.19344956 52.74615475 0.20066511 54.27237261 0.21146011 55.7985611 C0.22598018 57.93644064 0.22797775 60.07399314 0.22705078 62.21191406 C0.231492 63.4288092 0.23593323 64.64570435 0.24050903 65.8994751 C0.01117855 68.85589163 -0.44578417 70.51569885 -2 73 C-3.03607745 69.89176764 -3.09434875 67.85479795 -3.03759766 64.6015625 C-3.01229477 62.94338501 -3.01229477 62.94338501 -2.98648071 61.25170898 C-2.9625827 60.05489502 -2.93868469 58.85808105 -2.9140625 57.625 C-2.89282318 56.39015869 -2.87158386 55.15531738 -2.84970093 53.88305664 C-2.79152195 50.5926635 -2.72834433 47.30241071 -2.66339111 44.012146 C-2.60023862 40.70221235 -2.54721173 37.39210847 -2.4921875 34.08203125 C-2.44590237 31.53384338 -2.39904526 28.98566583 -2.3515625 26.4375 C-2.33171295 25.25687988 -2.3118634 24.07625977 -2.29141235 22.85986328 C-2.14808342 15.86645789 -1.74236948 8.95585824 -1 2 C-4.16115776 3.36983503 -4.9927092 3.9890638 -7 7 C-7.99 7 -8.98 7 -10 7 C-10.33 8.32 -10.66 9.64 -11 11 C-12.32 10.67 -13.64 10.34 -15 10 C-13.7121669 8.51749445 -12.41960936 7.03909182 -11.125 5.5625 C-10.40570313 4.73878906 -9.68640625 3.91507813 -8.9453125 3.06640625 C-5.97270884 -0.091239 -4.20978281 -0.11078376 0 0 Z " fill="#16B7D7" transform="translate(222,29)"/>
<path d="M0 0 C0.66 0 1.32 0 2 0 C2 0.99 2 1.98 2 3 C1.34 3 0.68 3 0 3 C-0.40798828 3.88365234 -0.40798828 3.88365234 -0.82421875 4.78515625 C-3.67437853 10.15406189 -8.5038052 14.98988031 -13 19 C-13.99 19 -14.98 19 -16 19 C-15.5236925 23.28676746 -13.01914242 25.11809132 -10 28 C-5 33.48780488 -5 33.48780488 -5 36 C-3.68 36 -2.36 36 -1 36 C-1 36.99 -1 37.98 -1 39 C-0.401875 39.0825 0.19625 39.165 0.8125 39.25 C3.65361183 40.22409548 4.54982079 41.40494247 6 44 C5.67 44.99 5.34 45.98 5 47 C4.38511719 46.37351563 3.77023438 45.74703125 3.13671875 45.1015625 C2.32847656 44.28429687 1.52023438 43.46703125 0.6875 42.625 C-0.11300781 41.81289062 -0.91351563 41.00078125 -1.73828125 40.1640625 C-4.00009937 37.87395158 -4.00009937 37.87395158 -7 36 C-7 35.34 -7 34.68 -7 34 C-7.598125 33.731875 -8.19625 33.46375 -8.8125 33.1875 C-10.99847854 32.00082594 -12.41332594 30.90400887 -14 29 C-14 28.34 -14 27.68 -14 27 C-14.66 27 -15.32 27 -16 27 C-16 26.34 -16 25.68 -16 25 C-16.66 25 -17.32 25 -18 25 C-18.8125 22.875 -18.8125 22.875 -19 20 C-17.58633421 17.58545884 -16.01224447 16.01224447 -14 14 C-13.34 14 -12.68 14 -12 14 C-12 13.34 -12 12.68 -12 12 C-11.34 12 -10.68 12 -10 12 C-10 11.34 -10 10.68 -10 10 C-5.69767442 5.23255814 -5.69767442 5.23255814 -2 4 C-2 3.34 -2 2.68 -2 2 C-1.34 2 -0.68 2 0 2 C0 1.34 0 0.68 0 0 Z " fill="#58CBE1" transform="translate(64,181)"/>
<path d="M0 0 C0.66 0.33 1.32 0.66 2 1 C2.01030746 1.88061096 2.02061493 2.76122192 2.03123474 3.66851807 C2.12921035 11.96724306 2.23172498 20.26589689 2.33933926 28.56450272 C2.39450468 32.83089902 2.44791443 37.09730226 2.49731445 41.36376953 C2.54505218 45.48109593 2.5973983 49.59834029 2.65294075 53.71556854 C2.6733217 55.28641467 2.69204175 56.85728325 2.70907402 58.42816925 C2.73321252 60.62830212 2.76325385 62.82828111 2.79467773 65.02832031 C2.81022202 66.28074524 2.8257663 67.53317017 2.84178162 68.82354736 C2.97065355 71.41082945 3.23470905 73.54268904 4 76 C3.67 76 3.34 76 3 76 C2.67 82.27 2.34 88.54 2 95 C1.67 95 1.34 95 1 95 C1 89.39 1 83.78 1 78 C0.34 78 -0.32 78 -1 78 C-1.268125 78.7425 -1.53625 79.485 -1.8125 80.25 C-2.94229421 82.86636554 -4.20893202 84.80187111 -6 87 C-6.20016822 83.39697197 -5.99767079 81.04907647 -4 78 C-2.515 77.01 -2.515 77.01 -1 76 C0.13603185 72.59190446 0.15948953 69.92003549 0.20532227 66.32543945 C0.21522186 65.652005 0.22512146 64.97857056 0.23532104 64.284729 C0.26688389 62.06094873 0.29167275 59.8371471 0.31640625 57.61328125 C0.33698029 56.07056628 0.35797688 54.5278569 0.37937927 52.9851532 C0.4345535 48.92622398 0.48398325 44.86724427 0.53222656 40.80822754 C0.58247554 36.66572582 0.63814387 32.52329734 0.69335938 28.38085938 C0.80088409 20.25396819 0.90234166 12.1270157 1 4 C-0.32 3.67 -1.64 3.34 -3 3 C-2.01 2.01 -1.02 1.02 0 0 Z " fill="#72D4E4" transform="translate(221,25)"/>
<path d="M0 0 C2.81249625 3.51340226 5.01890435 7.32064585 7.1875 11.25 C7.55552734 11.88035156 7.92355469 12.51070312 8.30273438 13.16015625 C10.96143497 18.00402263 11.37347527 21.48970908 11 27 C8.33326258 27.02727345 5.66681131 27.04696948 3 27.0625 C1.88431641 27.07506836 1.88431641 27.07506836 0.74609375 27.08789062 C-4.26148844 27.10966272 -9.04279032 26.71541549 -14 26 C-14 25.67 -14 25.34 -14 25 C-6.41 25 1.18 25 9 25 C8.67 24.34 8.34 23.68 8 23 C6.68 23 5.36 23 4 23 C4 22.01 4 21.02 4 20 C4.66 20 5.32 20 6 20 C5.39816251 17.97954558 4.72693904 15.97888961 4 14 C3.34 13.67 2.68 13.34 2 13 C1.3671875 11.07421875 1.3671875 11.07421875 0.875 8.6875 C0.62363281 7.51767578 0.62363281 7.51767578 0.3671875 6.32421875 C0 4 0 4 0 0 Z " fill="#06C1DF" transform="translate(294,233)"/>
<path d="M0 0 C3.43657406 3.95703517 5.68496218 8.00872671 7.9375 12.6875 C8.63398607 14.11073998 9.33060061 15.5339171 10.02734375 16.95703125 C10.36233887 17.64619629 10.69733398 18.33536133 11.04248047 19.04541016 C12.70926428 22.44782504 14.45219676 25.81182923 16.1875 29.1796875 C17 31 17 31 17 33 C14.00667261 32.0022242 13.05233685 31.2477975 11 29 C10.67 29.99 10.34 30.98 10 32 C8.54815522 27.46298506 7.76490804 23.81938524 8 19 C7.34 19 6.68 19 6 19 C5.49384702 17.73160474 4.99530901 16.46016898 4.5 15.1875 C4.2215625 14.47980469 3.943125 13.77210937 3.65625 13.04296875 C3 11 3 11 3 8 C2.34 8 1.68 8 1 8 C0.67 5.36 0.34 2.72 0 0 Z " fill="#3CC7E0" transform="translate(225,101)"/>
<path d="M0 0 C3.75376152 1.25125384 4.24073289 2.5652404 6 6 C6 6.66 6 7.32 6 8 C6.66 8 7.32 8 8 8 C8 8.66 8 9.32 8 10 C8.99 10 9.98 10 11 10 C11.4125 10.86625 11.825 11.7325 12.25 12.625 C13.97832149 15.95819144 15.87076408 18.91627901 18 22 C17.01 22 16.02 22 15 22 C14.67 21.01 14.34 20.02 14 19 C13.443125 18.731875 12.88625 18.46375 12.3125 18.1875 C8.96235837 16.467157 6.37574493 13.91424712 4 11 C4 10.34 4 9.68 4 9 C3.34 9 2.68 9 2 9 C0 2.25 0 2.25 0 0 Z " fill="#30BFDD" transform="translate(177,330)"/>
<path d="M0 0 C3.36156091 1.68078045 4.35873192 5.41698778 5.9375 8.6875 C6.45860352 9.75000977 6.45860352 9.75000977 6.99023438 10.83398438 C7.67502183 12.23064127 8.35656821 13.62889251 9.03466797 15.02880859 C9.91655315 16.82960296 10.83348034 18.61312788 11.75390625 20.39453125 C13 23 13 23 13 25 C10 25 10 25 8.3125 23.8125 C6.59635305 21.44258278 6.76812892 19.85974334 7 17 C5.68 17 4.36 17 3 17 C1.82877141 11.34853777 0.74660712 5.72398793 0 0 Z " fill="#4BC9DE" transform="translate(255,159)"/>
<path d="M0 0 C1.76462683 3.08809695 2 4.23312136 2 8 C3.1446875 8.1546875 3.1446875 8.1546875 4.3125 8.3125 C7.18416484 9.04711194 8.23042094 9.6716065 10 12 C10 12.66 10 13.32 10 14 C10.78375 14.12375 11.5675 14.2475 12.375 14.375 C15 15 15 15 17 17 C17.40047444 19.32275177 17.7397104 21.65739357 18 24 C13.68929303 20.39308192 9.63939561 16.68921225 5.7109375 12.671875 C4.064543 11.06306941 2.36059296 9.62259767 0.5625 8.1875 C-0.283125 7.465625 -1.12875 6.74375 -2 6 C-2 5.34 -2 4.68 -2 4 C-1.34 4 -0.68 4 0 4 C0 2.68 0 1.36 0 0 Z " fill="#33BEDB" transform="translate(84,236)"/>
<path d="M0 0 C-1.69083663 6.05034312 -4.6828924 11.36414871 -7.625 16.875 C-8.3984375 18.33679688 -8.3984375 18.33679688 -9.1875 19.828125 C-10.45428286 22.22093706 -11.72521318 24.61144536 -13 27 C-13.33 27 -13.66 27 -14 27 C-14.20086443 23.28400809 -14.1519437 22.22791555 -12 19 C-11.54860541 16.9507906 -11.54860541 16.9507906 -11.375 14.8125 C-11.25125 13.554375 -11.1275 12.29625 -11 11 C-10.34 11 -9.68 11 -9 11 C-8.814375 10.0409375 -8.814375 10.0409375 -8.625 9.0625 C-8.41875 8.381875 -8.2125 7.70125 -8 7 C-7.34 6.67 -6.68 6.34 -6 6 C-5.67 5.01 -5.34 4.02 -5 3 C-2.44444444 0 -2.44444444 0 0 0 Z " fill="#1FBFDB" transform="translate(204,133)"/>
<path d="M0 0 C0.66 1.32 1.32 2.64 2 4 C0.50260417 5.20442708 -0.99479167 6.40885417 -2.4921875 7.61328125 C-4.25292107 9.12270545 -4.25292107 9.12270545 -6 12 C-6.99 12 -7.98 12 -9 12 C-9.061875 12.53625 -9.12375 13.0725 -9.1875 13.625 C-10.63466419 17.85517224 -13.48778396 21.10084451 -17.3125 23.375 C-17.869375 23.58125 -18.42625 23.7875 -19 24 C-15.98241751 17.4619046 -11.71156769 12.37022903 -6.8125 7.1875 C-5.99362305 6.31061523 -5.99362305 6.31061523 -5.15820312 5.41601562 C-1.44294085 1.44294085 -1.44294085 1.44294085 0 0 Z " fill="#21BDDC" transform="translate(206,40)"/>
<path d="M0 0 C0.66 0 1.32 0 2 0 C2 0.99 2 1.98 2 3 C1.34 3 0.68 3 0 3 C-0.40798828 3.88365234 -0.40798828 3.88365234 -0.82421875 4.78515625 C-3.67437853 10.15406189 -8.5038052 14.98988031 -13 19 C-13.99 19 -14.98 19 -16 19 C-16 20.98 -16 22.96 -16 25 C-16.66 25 -17.32 25 -18 25 C-18.8125 22.875 -18.8125 22.875 -19 20 C-17.58633421 17.58545884 -16.01224447 16.01224447 -14 14 C-13.34 14 -12.68 14 -12 14 C-12 13.34 -12 12.68 -12 12 C-11.34 12 -10.68 12 -10 12 C-10 11.34 -10 10.68 -10 10 C-5.69767442 5.23255814 -5.69767442 5.23255814 -2 4 C-2 3.34 -2 2.68 -2 2 C-1.34 2 -0.68 2 0 2 C0 1.34 0 0.68 0 0 Z " fill="#6AD2E5" transform="translate(64,181)"/>
<path d="M0 0 C0 11.55 0 23.1 0 35 C-0.33 35 -0.66 35 -1 35 C-1 24.11 -1 13.22 -1 2 C-5.12403473 3.64856825 -5.12403473 3.64856825 -7 7 C-7.99 7 -8.98 7 -10 7 C-10.33 8.32 -10.66 9.64 -11 11 C-12.32 10.67 -13.64 10.34 -15 10 C-13.7121669 8.51749445 -12.41960936 7.03909182 -11.125 5.5625 C-10.40570313 4.73878906 -9.68640625 3.91507813 -8.9453125 3.06640625 C-5.71981627 -0.35987388 -5.08927392 0 0 0 Z " fill="#24B7D2" transform="translate(222,29)"/>
<path d="M0 0 C0 3.62361106 -0.80164832 4.2317053 -3 7 C-3.495 7.845625 -3.99 8.69125 -4.5 9.5625 C-5.86803116 11.78555063 -6.97150166 13.37720132 -9 15 C-9.680625 15.12375 -10.36125 15.2475 -11.0625 15.375 C-11.701875 15.58125 -12.34125 15.7875 -13 16 C-13.433125 17.2375 -13.433125 17.2375 -13.875 18.5 C-14.24625 19.325 -14.6175 20.15 -15 21 C-18.125 21.8125 -18.125 21.8125 -21 22 C-21 21.34 -21 20.68 -21 20 C-19.70703125 18.73046875 -19.70703125 18.73046875 -17.8125 17.1875 C-11.50477121 11.84581976 -5.79990037 5.87947217 0 0 Z " fill="#47C9E0" transform="translate(87,159)"/>
<path d="M0 0 C0.66 0.33 1.32 0.66 2 1 C0.29361742 2.70638258 -1.41298639 4.41253086 -3.12109375 6.1171875 C-4.673555 7.67287632 -6.21348264 9.2410618 -7.75 10.8125 C-10 13 -10 13 -13 15 C-11.64763423 12.06120516 -10.10057341 9.70767089 -8 7.25 C-7.2265625 6.32960937 -7.2265625 6.32960937 -6.4375 5.390625 C-5 4 -5 4 -3 4 C-3 3.01 -3 2.02 -3 1 C-2.01 0.67 -1.02 0.34 0 0 Z M-15 15 C-14.34 15.33 -13.68 15.66 -13 16 C-13.7115625 16.7734375 -13.7115625 16.7734375 -14.4375 17.5625 C-16.42809407 20.66782675 -16.65060818 23.36632504 -17 27 C-17.33 26.34 -17.66 25.68 -18 25 C-18.99 24.67 -19.98 24.34 -21 24 C-21 22.68 -21 21.36 -21 20 C-20.01 20 -19.02 20 -18 20 C-17.5359375 19.0409375 -17.5359375 19.0409375 -17.0625 18.0625 C-16 16 -16 16 -15 15 Z " fill="#0FBCDF" transform="translate(69,180)"/>
<path d="M0 0 C2.66648371 3.33105349 4.6669681 6.87197848 6.6875 10.625 C7.31011719 11.77226562 7.93273437 12.91953125 8.57421875 14.1015625 C10 17 10 17 10 19 C8.68 19 7.36 19 6 19 C5.34 17.68 4.68 16.36 4 15 C3.34 15 2.68 15 2 15 C1.66223316 13.2508503 1.32996329 11.50063855 1 9.75 C0.814375 8.77546875 0.62875 7.8009375 0.4375 6.796875 C0 4 0 4 0 0 Z " fill="#39C4E2" transform="translate(273,193)"/>
<path d="M0 0 C0 3.69418201 -1.28179295 5.77836178 -3 9 C-3.66 9 -4.32 9 -5 9 C-5.226875 9.598125 -5.45375 10.19625 -5.6875 10.8125 C-7.37304841 13.62174735 -9.05002192 14.63293699 -12 16 C-12.99 15.67 -13.98 15.34 -15 15 C-10.05 10.05 -5.1 5.1 0 0 Z " fill="#14BAD9" transform="translate(170,76)"/>
<path d="M0 0 C2.54328558 2.54328558 5.08031692 5.08423481 7.5625 7.6875 C9.7944891 10.04630992 9.7944891 10.04630992 12.25 11.0625 C14 12 14 12 14.75 14.125 C14.87375 15.053125 14.87375 15.053125 15 16 C15.66 16 16.32 16 17 16 C18.7143618 17.95927063 20.38405168 19.95880212 22 22 C21.67 22.66 21.34 23.32 21 24 C19.84501103 22.92643323 18.70132133 21.84070212 17.5625 20.75 C16.92441406 20.14671875 16.28632813 19.5434375 15.62890625 18.921875 C13.91483694 16.89951984 13.40641122 15.58729395 13 13 C12.0925 12.938125 11.185 12.87625 10.25 12.8125 C6.23118116 11.80779529 5.3236806 10.31954371 3 7 C2.34 6.67 1.68 6.34 1 6 C1 5.34 1 4.68 1 4 C0.34 4 -0.32 4 -1 4 C-0.67 2.68 -0.34 1.36 0 0 Z " fill="#23B7D4" transform="translate(196,351)"/>
<path d="M0 0 C0.99 0 1.98 0 3 0 C1.51991304 5.00113594 -0.6318336 9.32915597 -3.125 13.875 C-3.49753906 14.56335938 -3.87007812 15.25171875 -4.25390625 15.9609375 C-5.16499526 17.64294798 -6.08190315 19.32180436 -7 21 C-7.33 21 -7.66 21 -8 21 C-7.88541307 19.56163249 -7.75790884 18.12429034 -7.625 16.6875 C-7.55539063 15.88699219 -7.48578125 15.08648437 -7.4140625 14.26171875 C-7 12 -7 12 -5 9 C-4.01 9 -3.02 9 -2 9 C-2 7.02 -2 5.04 -2 3 C-1.34 3 -0.68 3 0 3 C0 2.01 0 1.02 0 0 Z " fill="#57CDE1" transform="translate(212,112)"/>
<path d="M0 0 C0.66 0 1.32 0 2 0 C1.45791842 4.22338184 0.50788927 7.4335855 -1.50390625 11.1796875 C-1.99697266 12.1078125 -2.49003906 13.0359375 -2.99804688 13.9921875 C-3.51431641 14.94351563 -4.03058594 15.89484375 -4.5625 16.875 C-5.08263672 17.84953125 -5.60277344 18.8240625 -6.13867188 19.828125 C-7.41824637 22.22292498 -8.7055038 24.61324282 -10 27 C-10.33 27 -10.66 27 -11 27 C-11.22036864 23.14354879 -10.60355101 20.50776784 -9 17 C-8.34 17 -7.68 17 -7 17 C-6.67 15.35 -6.34 13.7 -6 12 C-5.34 12 -4.68 12 -4 12 C-4 11.01 -4 10.02 -4 9 C-3.34 9 -2.68 9 -2 9 C-2 7.68 -2 6.36 -2 5 C-1.34 5 -0.68 5 0 5 C0 3.35 0 1.7 0 0 Z " fill="#4FC8DC" transform="translate(156,219)"/>
<path d="M0 0 C3.37019561 1.68509781 4.40050563 5.4160704 6 8.6875 C6.53367188 9.75000977 6.53367188 9.75000977 7.078125 10.83398438 C9.04932661 14.81684137 10.70982586 18.73301783 12 23 C10.09765625 22.765625 10.09765625 22.765625 8 22 C7.05859375 20.109375 7.05859375 20.109375 6.4375 17.75 C5.63146854 14.96831533 4.95673409 12.9290439 3.4375 10.4375 C1.45450404 7.07502859 0.83877888 3.80676569 0 0 Z " fill="#57CCE1" transform="translate(243,136)"/>
<path d="M0 0 C1.8671875 0.10546875 1.8671875 0.10546875 4 1 C5.1953125 3.80078125 5.1953125 3.80078125 6.125 7.3125 C7.61787328 12.83128566 7.61787328 12.83128566 10 18 C8.35 17.67 6.7 17.34 5 17 C4.896875 16.21625 4.79375 15.4325 4.6875 14.625 C4.22404978 11.66954819 4.22404978 11.66954819 1 10 C0.875 6.5625 0.875 6.5625 1 3 C0.67 2.01 0.34 1.02 0 0 Z " fill="#17BDDE" transform="translate(239,133)"/>
<path d="M0 0 C0.66 1.32 1.32 2.64 2 4 C1.67 4 1.34 4 1 4 C0.67 10.27 0.34 16.54 0 23 C-0.33 23 -0.66 23 -1 23 C-1 17.39 -1 11.78 -1 6 C-1.66 6 -2.32 6 -3 6 C-3.268125 6.7425 -3.53625 7.485 -3.8125 8.25 C-4.94229421 10.86636554 -6.20893202 12.80187111 -8 15 C-8.27958478 9.96747394 -7.3333891 7.50006274 -4 3.75 C-2 2 -2 2 0 2 C0 1.34 0 0.68 0 0 Z " fill="#84E3F4" transform="translate(223,97)"/>
<path d="M0 0 C3.00399441 3.53295864 5.20452862 7.02940792 7.25 11.1875 C8.03117188 12.75564453 8.03117188 12.75564453 8.828125 14.35546875 C10 17 10 17 10 19 C8.68 19 7.36 19 6 19 C5.49384702 17.73160474 4.99530901 16.46016898 4.5 15.1875 C4.2215625 14.47980469 3.943125 13.77210937 3.65625 13.04296875 C3 11 3 11 3 8 C2.34 8 1.68 8 1 8 C0.67 5.36 0.34 2.72 0 0 Z " fill="#4EC7E1" transform="translate(225,101)"/>
<path d="M0 0 C2.92521913 3.6102388 5.0625098 7.54689328 7.25 11.625 C7.62640625 12.305625 8.0028125 12.98625 8.390625 13.6875 C9.32475399 15.42525466 10.17004594 17.21014959 11 19 C10.67 19.66 10.34 20.32 10 21 C9.34 20.34 8.68 19.68 8 19 C8 18.01 8 17.02 8 16 C7.01 16 6.02 16 5 16 C2.20572053 13.88230152 1.4795795 11.94350976 0.8125 8.5625 C0.65394531 7.80066406 0.49539063 7.03882813 0.33203125 6.25390625 C0 4 0 4 0 0 Z " fill="#54CEE2" transform="translate(294,233)"/>
<path d="M0 0 C0.33 0 0.66 0 1 0 C1 1.65 1 3.3 1 5 C0.01 5 -0.98 5 -2 5 C-2.99 8.96 -3.98 12.92 -5 17 C-5.66 17 -6.32 17 -7 17 C-7.33 17.66 -7.66 18.32 -8 19 C-8.59551568 13.28304945 -7.40162446 10.30016401 -4.2890625 5.50390625 C-3.86367187 5.00761719 -3.43828125 4.51132813 -3 4 C-2.34 4 -1.68 4 -1 4 C-0.67 2.68 -0.34 1.36 0 0 Z " fill="#10BDDC" transform="translate(209,116)"/>
<path d="M0 0 C0.61875 0.804375 1.2375 1.60875 1.875 2.4375 C3.74164041 5.03874519 3.74164041 5.03874519 6 6 C6.33 6.99 6.66 7.98 7 9 C7.969375 9.474375 8.93875 9.94875 9.9375 10.4375 C13.10211637 12.05210019 13.87470028 12.73663082 15 16 C14.34 16.33 13.68 16.66 13 17 C12.938125 16.071875 12.938125 16.071875 12.875 15.125 C12.58625 14.42375 12.2975 13.7225 12 13 C10.700625 12.62875 10.700625 12.62875 9.375 12.25 C4.67164984 10.50801846 1.63712211 7.25478168 -1 3 C-0.67 2.01 -0.34 1.02 0 0 Z " fill="#0FBDE2" transform="translate(198,350)"/>
<path d="M0 0 C2.58684814 1.29342407 2.89738445 2.35555275 4 5 C4.40445633 6.69713048 4.75740258 8.40722459 5.0625 10.125 C5.68273802 13.67791258 5.68273802 13.67791258 7 17 C5.68 17 4.36 17 3 17 C1.82877141 11.34853777 0.74660712 5.72398793 0 0 Z " fill="#36C3DF" transform="translate(255,159)"/>
<path d="M0 0 C2.475 0.495 2.475 0.495 5 1 C6 5.75 6 5.75 6 8 C3.13275314 7.42655063 2.1385485 7.1385485 0 5 C-0.125 2.375 -0.125 2.375 0 0 Z " fill="#1FBBD9" transform="translate(160,314)"/>
<path d="M0 0 C6.2753624 3.08358325 10.43933204 5.97425423 14 12 C13.01 12 12.02 12 11 12 C10.67 11.01 10.34 10.02 10 9 C8.6756885 8.31558691 7.34107242 7.65095851 6 7 C4.296875 5.2734375 4.296875 5.2734375 2.75 3.375 C2.22921875 2.74335938 1.7084375 2.11171875 1.171875 1.4609375 C0.78515625 0.97882813 0.3984375 0.49671875 0 0 Z " fill="#73D7E7" transform="translate(181,340)"/>
<path d="M0 0 C0.66 0.33 1.32 0.66 2 1 C1.61328125 1.43570313 1.2265625 1.87140625 0.828125 2.3203125 C-2.43984501 6.05744652 -5.34140589 9.8076016 -8 14 C-9.32 13.67 -10.64 13.34 -12 13 C-9.22016156 9.39650572 -6.25858949 6.17503591 -3 3 C-2.401875 2.401875 -1.80375 1.80375 -1.1875 1.1875 C-0.795625 0.795625 -0.40375 0.40375 0 0 Z " fill="#7FDBEA" transform="translate(195,50)"/>
<path d="M0 0 C1.65 0 3.3 0 5 0 C3.8905928 3.48670834 2.73662334 6.77484237 1 10 C0.34 10 -0.32 10 -1 10 C-0.67 6.7 -0.34 3.4 0 0 Z " fill="#44C7DC" transform="translate(140,246)"/>
<path d="M0 0 C0.66 0 1.32 0 2 0 C2 0.66 2 1.32 2 2 C1.34 2 0.68 2 0 2 C0.061875 2.86625 0.12375 3.7325 0.1875 4.625 C-0.02455502 8.44199033 -1.12044307 10.71077536 -3 14 C-3.66 14 -4.32 14 -5 14 C-5 12.02 -5 10.04 -5 8 C-4.34 8 -3.68 8 -3 8 C-2.690625 6.865625 -2.38125 5.73125 -2.0625 4.5625 C-1 1 -1 1 0 0 Z " fill="#2BBDD4" transform="translate(178,176)"/>
<path d="M0 0 C0.33 0.99 0.66 1.98 1 3 C-0.25 5.1875 -0.25 5.1875 -2 7 C-2.99 7 -3.98 7 -5 7 C-5.33 8.32 -5.66 9.64 -6 11 C-7.32 10.67 -8.64 10.34 -10 10 C-8.7121669 8.51749445 -7.41960936 7.03909182 -6.125 5.5625 C-5.40570313 4.73878906 -4.68640625 3.91507813 -3.9453125 3.06640625 C-2 1 -2 1 0 0 Z " fill="#52CCE2" transform="translate(217,29)"/>
<path d="M0 0 C0 3 0 3 -2 6 C-2.99 6 -3.98 6 -5 6 C-5 7.98 -5 9.96 -5 12 C-5.66 12 -6.32 12 -7 12 C-7.8125 9.875 -7.8125 9.875 -8 7 C-4.1 1.36666667 -4.1 1.36666667 0 0 Z " fill="#61CEDF" transform="translate(53,194)"/>
<path d="M0 0 C1.32 0 2.64 0 4 0 C5.39712274 1.95597184 6.71927629 3.9659094 8 6 C9.92009136 8.09980434 11.93978049 10.03342683 14 12 C13.67 12.66 13.34 13.32 13 14 C10.83031809 11.85714108 8.66416525 9.71091768 6.5 7.5625 C5.87996094 6.95083984 5.25992188 6.33917969 4.62109375 5.70898438 C4.03457031 5.12568359 3.44804687 4.54238281 2.84375 3.94140625 C2.02680664 3.13231812 2.02680664 3.13231812 1.19335938 2.30688477 C0 1 0 1 0 0 Z " fill="#86E2ED" transform="translate(205,364)"/>
<path d="M0 0 C3.16717283 1.58358642 4.73268318 2.45263699 6.3125 5.6875 C6.539375 6.450625 6.76625 7.21375 7 8 C6.34 8.66 5.68 9.32 5 10 C3.02 7.03 1.04 4.06 -1 1 C-0.67 0.67 -0.34 0.34 0 0 Z " fill="#13BBDC" transform="translate(190,343)"/>
<path d="M0 0 C0.99 0 1.98 0 3 0 C3.33 0.99 3.66 1.98 4 3 C4.99 3.33 5.98 3.66 7 4 C7 5.32 7 6.64 7 8 C3.76912579 7.44295272 1.97638863 6.66812465 0 4 C0 2.68 0 1.36 0 0 Z " fill="#29BDDC" transform="translate(102,257)"/>
<path d="M0 0 C0 3.3645241 -0.38101977 5.05639958 -2 8 C-5 9.875 -5 9.875 -8 11 C-8.66 10.67 -9.32 10.34 -10 10 C-6.7 6.7 -3.4 3.4 0 0 Z " fill="#4CCAE0" transform="translate(154,92)"/>
<path d="M0 0 C0.33 0 0.66 0 1 0 C1 7.59 1 15.18 1 23 C-0.32 22.67 -1.64 22.34 -3 22 C-3 21.34 -3 20.68 -3 20 C-2.01 20 -1.02 20 0 20 C0 13.4 0 6.8 0 0 Z " fill="#76CDDC" transform="translate(222,357)"/>
<path d="M0 0 C0.66 0 1.32 0 2 0 C5.11450382 4.15267176 5.11450382 4.15267176 4.6875 7.3125 C4.460625 7.869375 4.23375 8.42625 4 9 C4 8.01 4 7.02 4 6 C2.02 6.33 0.04 6.66 -2 7 C-2 6.01 -2 5.02 -2 4 C-1.34 4 -0.68 4 0 4 C0 2.68 0 1.36 0 0 Z " fill="#16BCD8" transform="translate(300,249)"/>
<path d="M0 0 C3.09592835 3.5087188 4.74194623 6.49197399 6 11 C4.68 11 3.36 11 2 11 C0.80712589 7.12315913 0 4.08378077 0 0 Z " fill="#54CBE2" transform="translate(277,201)"/>
<path d="M0 0 C1.32 0 2.64 0 4 0 C4.33 1.65 4.66 3.3 5 5 C5.66 5 6.32 5 7 5 C7.33 6.65 7.66 8.3 8 10 C8.66 10 9.32 10 10 10 C10 10.66 10 11.32 10 12 C8.1875 11.9375 8.1875 11.9375 6 11 C4.36061154 7.72122308 3.15761401 4.47284204 2 1 C1.34 0.67 0.68 0.34 0 0 Z " fill="#1BBCDD" transform="translate(128,282)"/>
<path d="M0 0 C1.32 0 2.64 0 4 0 C6.3125 2.8125 6.3125 2.8125 8 6 C7.67 6.99 7.34 7.98 7 9 C5.82737096 7.88121617 4.66204862 6.75476949 3.5 5.625 C2.8503125 4.99851562 2.200625 4.37203125 1.53125 3.7265625 C0 2 0 2 0 0 Z " fill="#39BAD8" transform="translate(126,283)"/>
<path d="M0 0 C4.00972202 3.67557852 6.45335415 7.18966896 9 12 C8.34 12 7.68 12 7 12 C5.64613064 10.34997172 4.31321858 8.6825613 3 7 C2.34 6.67 1.68 6.34 1 6 C1 5.34 1 4.68 1 4 C0.34 4 -0.32 4 -1 4 C-0.67 2.68 -0.34 1.36 0 0 Z " fill="#50C8E0" transform="translate(196,351)"/>
<path d="M0 0 C0.66 3.3 1.32 6.6 2 10 C1.34 10 0.68 10 0 10 C-0.66 8.68 -1.32 7.36 -2 6 C-2.66 6 -3.32 6 -4 6 C-4.33 5.01 -4.66 4.02 -5 3 C-2.25 0 -2.25 0 0 0 Z " fill="#12BADA" transform="translate(86,234)"/>
<path d="M0 0 C2.23960447 2.87949147 4.29864224 5.76742026 6 9 C5.67 9.66 5.34 10.32 5 11 C3.046875 10.2890625 3.046875 10.2890625 1 9 C0.390625 6.8359375 0.390625 6.8359375 0.25 4.375 C0.19328125 3.55773437 0.1365625 2.74046875 0.078125 1.8984375 C0.05234375 1.27195313 0.0265625 0.64546875 0 0 Z " fill="#52CAE1" transform="translate(288,222)"/>
<path d="M0 0 C0 3.68553144 -0.8522582 5.03759752 -3 8 C-5.5625 9.875 -5.5625 9.875 -8 11 C-8.66 10.67 -9.32 10.34 -10 10 C-6.7 6.7 -3.4 3.4 0 0 Z " fill="#54CDE2" transform="translate(106,140)"/>
<path d="M0 0 C1.1484375 1.671875 1.1484375 1.671875 2 4 C1.1015625 6.578125 1.1015625 6.578125 -0.375 9.25 C-0.85710937 10.14203125 -1.33921875 11.0340625 -1.8359375 11.953125 C-2.22007812 12.62859375 -2.60421875 13.3040625 -3 14 C-3.33 14 -3.66 14 -4 14 C-4 12.35 -4 10.7 -4 9 C-3.34 9 -2.68 9 -2 9 C-2 7.35 -2 5.7 -2 4 C-1.34 4 -0.68 4 0 4 C0 2.68 0 1.36 0 0 Z " fill="#4CCADC" transform="translate(172,188)"/>
<path d="M0 0 C-1.25805377 4.50802601 -2.90407165 7.4912812 -6 11 C-5.38857603 3.54062751 -5.38857603 3.54062751 -3.5625 1 C-2 0 -2 0 0 0 Z " fill="#50C9DB" transform="translate(204,133)"/>
<path d="M0 0 C2.25 -0.375 2.25 -0.375 5 0 C7.55245318 2.96636451 8.90817396 4.94400059 9.25 8.875 C9.1675 9.57625 9.085 10.2775 9 11 C7 10 7 10 5.625 6.625 C4.05631991 3.12563673 3.21890769 1.88694589 0 0 Z " fill="#1DBDDD" transform="translate(63,219)"/>
<path d="M0 0 C0.66 1.32 1.32 2.64 2 4 C0.35 5.32 -1.3 6.64 -3 8 C-3.99 7.34 -4.98 6.68 -6 6 C-4.02 4.02 -2.04 2.04 0 0 Z " fill="#3EC7E0" transform="translate(206,40)"/>
<path d="M0 0 C0.66 0 1.32 0 2 0 C0.68938409 4.23429756 -0.94356259 8.07407404 -3 12 C-3.33 12 -3.66 12 -4 12 C-4.61528766 6.92387682 -2.61658349 4.17017994 0 0 Z " fill="#56C9DA" transform="translate(194,148)"/>
<path d="M0 0 C0.99 0.33 1.98 0.66 3 1 C2 4 2 4 -0.875 5.6875 C-4 7 -4 7 -7 7 C-4.69 4.69 -2.38 2.38 0 0 Z " fill="#49C9DF" transform="translate(182,64)"/>
<path d="M0 0 C2.76262553 0.3810518 3.84143894 0.83597132 5.8125 2.875 C6.204375 3.57625 6.59625 4.2775 7 5 C6.67 5.99 6.34 6.98 6 8 C4.99403703 7.0479279 3.99538437 6.08812654 3 5.125 C2.443125 4.59132812 1.88625 4.05765625 1.3125 3.5078125 C0 2 0 2 0 0 Z " fill="#42BFDA" transform="translate(63,220)"/>
<path d="M0 0 C0.33 1.32 0.66 2.64 1 4 C-0.98 5.32 -2.96 6.64 -5 8 C-5.66 7.67 -6.32 7.34 -7 7 C-4.69 4.69 -2.38 2.38 0 0 Z " fill="#4ECAE0" transform="translate(143,103)"/>
<path d="M0 0 C3 1 3 1 4.75 3.4375 C5.36875 4.7059375 5.36875 4.7059375 6 6 C5.67 6.66 5.34 7.32 5 8 C3.0625 7.375 3.0625 7.375 1 6 C0.25 2.875 0.25 2.875 0 0 Z " fill="#15B9DA" transform="translate(177,330)"/>
<path d="M0 0 C2.64465038 3.1254959 3.84414715 6.08788267 5 10 C4.01 10 3.02 10 2 10 C0.68373308 6.38026598 0 3.90432869 0 0 Z " fill="#5FD2E5" transform="translate(283,212)"/>
<path d="M0 0 C4.42857143 5.14285714 4.42857143 5.14285714 5 9 C3.68 8.67 2.36 8.34 1 8 C0.67 5.36 0.34 2.72 0 0 Z " fill="#60CCE2" transform="translate(268,184)"/>
<path d="M0 0 C0.33 1.32 0.66 2.64 1 4 C-0.98 5.32 -2.96 6.64 -5 8 C-5.66 7.67 -6.32 7.34 -7 7 C-4.69 4.69 -2.38 2.38 0 0 Z " fill="#52CAE1" transform="translate(95,151)"/>
<path d="M0 0 C1 3 1 3 0.22265625 4.82421875 C-0.8515625 6.54947917 -1.92578125 8.27473958 -3 10 C-3.33 10 -3.66 10 -4 10 C-4.19990835 6.40164967 -3.96808719 4.06146896 -2 1 C-1.34 0.67 -0.68 0.34 0 0 Z " fill="#59CFE2" transform="translate(219,102)"/>
<path d="M0 0 C0.99 0 1.98 0 3 0 C3 1.32 3 2.64 3 4 C3.66 4 4.32 4 5 4 C5 5.65 5 7.3 5 9 C2.5 6.75 2.5 6.75 0 4 C0 2.68 0 1.36 0 0 Z " fill="#10BADE" transform="translate(113,265)"/>
<path d="M0 0 C1.89213369 2.38573379 3.02391783 4.07175348 4 7 C2.35 7.33 0.7 7.66 -1 8 C-0.67 5.36 -0.34 2.72 0 0 Z " fill="#61CAD8" transform="translate(305,254)"/>
<path d="M0 0 C2.91227269 3.28804981 4.49701212 5.59885603 5 10 C3.0625 9.5 3.0625 9.5 1 8 C0.31209578 5.30341548 0.18053536 2.7982981 0 0 Z " fill="#6CD2E3" transform="translate(225,101)"/>
<path d="M0 0 C1.25541557 3.76624671 0.37061958 5.37188934 -1 9 C-1.99 9 -2.98 9 -4 9 C-3.35455571 5.51460083 -1.89865603 2.97180943 0 0 Z " fill="#12BAE1" transform="translate(216,103)"/>
<path d="M0 0 C0 3.16880694 -0.2058242 4.43689172 -2 7 C-4.625 7.75 -4.625 7.75 -7 8 C-6.02133662 6.85373678 -5.04205413 5.70800212 -4.0625 4.5625 C-3.51722656 3.92441406 -2.97195312 3.28632812 -2.41015625 2.62890625 C-1.63204305 1.73008851 -0.84063472 0.84063472 0 0 Z " fill="#56CCE0" transform="translate(170,76)"/>
<path d="M0 0 C0 3.16880694 -0.2058242 4.43689172 -2 7 C-4.625 7.75 -4.625 7.75 -7 8 C-6.02133662 6.85373678 -5.04205413 5.70800212 -4.0625 4.5625 C-3.51722656 3.92441406 -2.97195312 3.28632812 -2.41015625 2.62890625 C-1.63204305 1.73008851 -0.84063472 0.84063472 0 0 Z " fill="#58CBE1" transform="translate(162,84)"/>
<path d="M0 0 C0.99 0.33 1.98 0.66 3 1 C2.34 2.65 1.68 4.3 1 6 C1.66 6.33 2.32 6.66 3 7 C1.68 6.67 0.36 6.34 -1 6 C-1.042721 4.33388095 -1.04063832 2.66617115 -1 1 C-0.67 0.67 -0.34 0.34 0 0 Z " fill="#1BBED6" transform="translate(136,256)"/>
<path d="M0 0 C1.85776765 3.13498292 2.20140476 5.37471432 2 9 C0 7.625 0 7.625 -2 6 C-2 5.34 -2 4.68 -2 4 C-1.34 4 -0.68 4 0 4 C0 2.68 0 1.36 0 0 Z " fill="#64CFE4" transform="translate(84,236)"/>
<path d="M0 0 C0.33 0.99 0.66 1.98 1 3 C0.01 4.485 0.01 4.485 -1 6 C-1.38499891 7.65549531 -1.72793135 9.3222433 -2 11 C-4 8 -4 8 -3.625 5.8125 C-3.41875 5.214375 -3.2125 4.61625 -3 4 C-2.34 4 -1.68 4 -1 4 C-0.67 2.68 -0.34 1.36 0 0 Z " fill="#18BBD9" transform="translate(192,149)"/>
<path d="M0 0 C0.33 0 0.66 0 1 0 C1.36923077 5.41538462 1.36923077 5.41538462 -0.5 8.375 C-0.995 8.91125 -1.49 9.4475 -2 10 C-1.85950482 8.52031676 -1.71245174 7.04125484 -1.5625 5.5625 C-1.48128906 4.73878906 -1.40007812 3.91507812 -1.31640625 3.06640625 C-1 1 -1 1 0 0 Z " fill="#3FC2D8" transform="translate(206,123)"/>
<path d="M0 0 C0.66 0.33 1.32 0.66 2 1 C2 3.64 2 6.28 2 9 C1.67 9 1.34 9 1 9 C1 7.35 1 5.7 1 4 C-0.32 3.67 -1.64 3.34 -3 3 C-2.01 2.01 -1.02 1.02 0 0 Z " fill="#6FC9D3" transform="translate(221,25)"/>
<path d="M0 0 C2.475 0.495 2.475 0.495 5 1 C5.33 2.65 5.66 4.3 6 6 C3.96166576 4.7260411 1.96147874 3.38938077 0 2 C0 1.34 0 0.68 0 0 Z " fill="#4DC6DD" transform="translate(86,244)"/>
<path d="M0 0 C2.475 0.495 2.475 0.495 5 1 C5 2.65 5 4.3 5 6 C4.34 6 3.68 6 3 6 C2.01 4.02 1.02 2.04 0 0 Z " fill="#14BBE0" transform="translate(56,211)"/>
<path d="" fill="#FFFFFF" transform="translate(0,0)"/>
<path d="" fill="#FFFFFF" transform="translate(0,0)"/>
<path d="" fill="#FFFFFF" transform="translate(0,0)"/>
<path d="" fill="#FFFFFF" transform="translate(0,0)"/>
<path d="" fill="#FFFFFF" transform="translate(0,0)"/>
<path d="" fill="#FFFFFF" transform="translate(0,0)"/>
<path d="" fill="#FFFFFF" transform="translate(0,0)"/>
<path d="" fill="#FFFFFF" transform="translate(0,0)"/>
<path d="" fill="#FFFFFF" transform="translate(0,0)"/>
<path d="" fill="#FFFFFF" transform="translate(0,0)"/>
<path d="" fill="#FFFFFF" transform="translate(0,0)"/>
<path d="" fill="#FFFFFF" transform="translate(0,0)"/>
<path d="" fill="#FFFFFF" transform="translate(0,0)"/>
<path d="" fill="#FFFFFF" transform="translate(0,0)"/>
<path d="" fill="#FFFFFF" transform="translate(0,0)"/>
<path d="" fill="#FFFFFF" transform="translate(0,0)"/>
<path d="" fill="#FFFFFF" transform="translate(0,0)"/>
<path d="" fill="#FFFFFF" transform="translate(0,0)"/>
<path d="" fill="#FFFFFF" transform="translate(0,0)"/>
<path d="" fill="#FFFFFF" transform="translate(0,0)"/>
<path d="" fill="#FFFFFF" transform="translate(0,0)"/>
<path d="" fill="#FFFFFF" transform="translate(0,0)"/>
<path d="" fill="#FFFFFF" transform="translate(0,0)"/>
<path d="" fill="#FFFFFF" transform="translate(0,0)"/>
<path d="" fill="#FFFFFF" transform="translate(0,0)"/>
<path d="" fill="#FFFFFF" transform="translate(0,0)"/>
<path d="" fill="#FFFFFF" transform="translate(0,0)"/>
<path d="" fill="#FFFFFF" transform="translate(0,0)"/>
<path d="" fill="#FFFFFF" transform="translate(0,0)"/>
<path d="" fill="#FFFFFF" transform="translate(0,0)"/>
<path d="" fill="#FFFFFF" transform="translate(0,0)"/>
<path d="" fill="#FFFFFF" transform="translate(0,0)"/>
<path d="" fill="#FFFFFF" transform="translate(0,0)"/>
<path d="" fill="#FFFFFF" transform="translate(0,0)"/>
<path d="" fill="#FFFFFF" transform="translate(0,0)"/>
<path d="" fill="#FFFFFF" transform="translate(0,0)"/>
<path d="" fill="#FFFFFF" transform="translate(0,0)"/>
<path d="" fill="#FFFFFF" transform="translate(0,0)"/>
<path d="" fill="#FFFFFF" transform="translate(0,0)"/>
<path d="" fill="#FFFFFF" transform="translate(0,0)"/>
<path d="" fill="#FFFFFF" transform="translate(0,0)"/>
<path d="" fill="#FFFFFF" transform="translate(0,0)"/>
<path d="" fill="#FFFFFF" transform="translate(0,0)"/>
<path d="" fill="#FFFFFF" transform="translate(0,0)"/>
<path d="" fill="#FFFFFF" transform="translate(0,0)"/>
<path d="" fill="#FFFFFF" transform="translate(0,0)"/>
<path d="" fill="#FFFFFF" transform="translate(0,0)"/>
<path d="" fill="#FFFFFF" transform="translate(0,0)"/>
<path d="" fill="#FFFFFF" transform="translate(0,0)"/>
<path d="" fill="#FFFFFF" transform="translate(0,0)"/>
<path d="" fill="#FFFFFF" transform="translate(0,0)"/>
<path d="" fill="#FFFFFF" transform="translate(0,0)"/>
<path d="" fill="#FFFFFF" transform="translate(0,0)"/>
</svg>
