<svg viewBox="0 0 512 512" xmlns="http://www.w3.org/2000/svg" fill-rule="evenodd" clip-rule="evenodd" stroke-linejoin="round" stroke-miterlimit="2"><path d="M251.666 11.781C115.994 11.781 6 121.763 6 257.44 6 393.11 115.994 503.1 251.666 503.1S497.328 393.11 497.328 257.44c0-135.676-109.994-245.658-245.662-245.658zm0 459.776c-38.6 0-69.897-25.786-69.897-57.585h139.795c0 31.795-31.297 57.585-69.898 57.585zm115.452-76.656H136.205v-41.87h230.913v41.87zm-.832-63.42H136.864c-.763-.88-1.543-1.748-2.28-2.64-23.636-28.7-29.202-43.683-34.608-58.951-.091-.503 28.66 5.874 49.049 10.46 0 0 10.491 2.428 25.83 5.224-14.728-17.262-23.472-39.208-23.472-61.638 0-49.244 37.769-92.276 24.143-127.058 13.262 1.08 27.447 27.989 28.405 70.062 14.098-19.482 19.998-55.062 19.998-76.877 0-22.587 14.883-48.824 29.77-49.72-13.27 21.87 3.438 40.62 18.29 87.133 5.572 17.471 4.86 46.873 9.161 65.52 1.427-38.728 8.086-95.233 32.653-114.742-10.838 24.568 1.604 55.31 10.115 70.088 13.73 23.844 22.053 41.909 22.053 76.075 0 22.908-8.458 44.475-22.725 61.335 16.222-3.043 27.424-5.787 27.424-5.787l52.682-10.28c.005-.004-7.651 31.48-37.066 61.796z" fill="#e6522c" fill-rule="nonzero"/></svg>